<?xml version="1.0" encoding="UTF-8"?>
<svg id="Layer_1" xmlns="http://www.w3.org/2000/svg" version="1.1" viewBox="0 0 2000 2000">
  <!-- Generator: Adobe Illustrator 29.1.0, SVG Export Plug-In . SVG Version: 2.1.0 Build 142)  -->
  <defs>
    <style>
      .st0 {
        stroke: #173144;
        stroke-linecap: round;
        stroke-linejoin: round;
        stroke-width: 6.33px;
      }
    </style>
  </defs>
  <path d="M213.1,1416.48c-8.13.02-20.96-15.49-26.22-26.18-5.51-11.18-3.66-17.4-1.15-20.65,3.17-4.1,6.31-8.22,9.42-12.35,25.09-33.37,50.17-70.82,74.53-111.31,24.65-40.98,47.96-83.88,71.26-131.18,22.88-46.44,45.4-96.67,66.95-149.29,21.63-52.82,42.89-109.54,63.18-168.59,20.49-59.61,39.83-120.88,59.12-187.29.99-3.4,3.5-5.44,6.73-5.45,7.17-.02,16.6,11.07,17.65,12.33,4.06,4.88,7.69,11.03,9.94,16.87,1.57,4.05,3.2,9.33,1.95,14.23-.33,1.31-.66,2.62-.99,3.93-2.3,9.2-4.67,19.01-7.46,30.85-4.24,17.98-8.49,36.75-12.65,55.77-5.43,24.86-10.61,49.86-15.41,74.31-5.83,29.75-11.14,58.94-15.78,86.76-5.46,32.78-9.92,62.99-13.61,92.37-.47,3.74-.93,7.47-1.38,11.21-.26,2.13-.87,7.42-.88,7.49l-.21,1.8c-.88,7.76-1.7,15.51-2.44,23.03-1.54,15.62-2.8,30.81-3.74,45.15-2.04,31.21-2.64,58.5-1.84,83.43.43,13.36,1.24,25.45,2.49,36.97.31,2.87.65,5.73,1.03,8.58.19,1.44.39,2.89.6,4.33l.14.94c.94,5.69,1.88,10.66,2.88,15.18,1.11,5.01,2.35,9.82,3.68,14.28.18.59.36,1.19.55,1.78l.18.54c.75,2.15,1.53,4.24,2.32,6.2.5,1.25,1.7,3.79,2.09,4.62.24.47.53,1.03.84,1.59.14.21.27.42.41.63.4.41.79.83,1.18,1.25l.53.56c.32.26.64.51.97.76.4.3.8.58,1.2.86l.05.03c2.26,1.22,4.73,2.34,7.73,3.5l.08.02c.76.2,1.52.38,2.28.53,1.59.33,3.25.59,4.94.76,1.78.18,3.62.27,5.49.26,1.71,0,3.47-.09,5.25-.25,1.89-.17,3.85-.43,5.83-.78.54-.09,1.36-.28,1.85-.39.33-.07.55-.12.75-.15h.02c.55-.13,1.1-.26,1.64-.41,8.14-2.16,16.4-5.83,24.57-10.9,16.42-10.2,31.58-24.9,47.7-46.25.89-1.18,1.77-2.37,2.64-3.55l.69-.95,1.38-1.94c1.89-2.68,3.79-5.45,5.64-8.25,3.68-5.55,7.4-11.48,11.06-17.64,7.24-12.2,14.17-25.11,21.17-39.47,13.44-27.56,25.84-57.66,37.89-92.03,11.35-32.38,21.88-67.31,31.29-103.82,9.15-35.52,17.15-72.12,23.76-108.79,3.25-18,6.17-36.11,8.68-53.8,1.26-8.86,2.43-17.72,3.49-26.35.26-2.09.51-4.19.75-6.29l.47-4.06c.48-4.28.93-8.56,1.37-12.84,3.54-34.88,5.28-66.19,5.34-95.73.03-14.97-.38-28.61-1.26-41.71-.43-6.43-.98-12.68-1.63-18.59-.33-3.01-.7-6.02-1.09-8.92-.19-1.38-.39-2.76-.58-4.14l-.15-.95c-1.67-10.2-3.91-20.01-6.65-29.17-.33-.94-.66-1.88-1.01-2.81-.66-1.79-1.35-3.53-2.06-5.17-.2-.4-.39-.79-.6-1.19-.33-.63-.66-1.25-1-1.87-2.11-3.58-4.8-8.55-6.28-14.26-2.1-8.12.34-11.71,2.76-13.29,1.17-.76,2.51-1.15,3.99-1.16,3.54,0,6.95,2.22,9.2,3.9,4.3,3.2,8.87,8.37,12.22,13.82,6.87,11.19,12.01,22,15.74,33.05,7.27,21.56,11.72,45.35,14.01,74.87,2.04,26.33,2.2,55.42.5,88.91-1.68,33.03-5.05,67.52-10.29,105.45-5,36.22-11.56,73.28-19.49,110.14-8.11,37.68-17.52,74.54-27.98,109.56-11,36.82-22.55,69.87-35.31,101.04-13.52,33.04-27.26,61.14-41.99,85.91-16.33,27.46-31.81,47.92-48.72,64.38-17.71,17.24-35.12,27.85-53.21,32.43-7.24,1.83-14.28,2.77-20.91,2.79-11.42.03-21.81-2.65-30.86-7.97-19.91-11.7-35.85-31.45-48.74-60.38-8.22-18.45-13.54-39.41-17.26-67.98-2.97-22.85-4.17-47.63-3.77-77.98.36-27.15,2.03-56.4,5.12-89.42,1.8-19.24,3.97-38.87,6.58-59.39-9.49,24.52-19.17,48.55-28.91,71.77-22.19,52.93-44.43,101.32-67.99,147.94-23.58,46.65-47.17,88.93-72.13,129.26-24.69,39.9-50.72,77.6-77.36,112.07-1.14,1.47-2.83,2.28-4.77,2.29Z"/>
  <path d="M759.43,493.96c2.47,0,5.42,2.06,6.86,3.13,4.29,3.19,8.46,8.23,11.22,12.73,6.25,10.19,11.54,20.91,15.37,32.25,8.05,23.88,11.87,48.85,13.81,73.93,2.28,29.4,1.99,58.98.49,88.41-1.79,35.17-5.44,70.24-10.25,105.11-5.09,36.84-11.62,73.49-19.44,109.85-7.91,36.76-17.14,73.24-27.91,109.26-10.18,34.07-21.71,67.77-35.18,100.68-12,29.32-25.53,58.14-41.73,85.39-13.55,22.78-29.03,45.02-48.08,63.58-14.45,14.07-31.64,26.43-51.45,31.44-6.59,1.67-13.31,2.65-19.97,2.67-9.99.03-19.84-2.13-28.87-7.43-22.16-13.02-36.9-35.59-47.15-58.6-9.4-21.1-13.99-44.11-16.95-66.89-3.34-25.64-4.08-51.6-3.74-77.43.39-29.76,2.33-59.49,5.1-89.11,2.9-31.04,6.7-61.99,11.11-92.84,7.93-21.17,15.62-42.42,23.11-63.75,21.48-61.18,41.26-122.96,59.69-185.13,2.42-8.18,4.82-16.36,7.2-24.55-.34,1.31-.67,2.63-.99,3.95-2.57,10.28-5.04,20.58-7.47,30.9-4.38,18.58-8.59,37.19-12.66,55.84-5.4,24.74-10.55,49.54-15.42,74.39-5.66,28.88-10.96,57.84-15.8,86.87-5.13,30.75-9.74,61.59-13.64,92.52-.47,3.74-.93,7.49-1.38,11.24-.26,2.14-.51,4.27-.76,6.41-.09.8-.18,1.6-.28,2.4.13-1.11.18-1.5.18-1.5,0,0-.18,1.51-.23,2.01-.87,7.69-1.69,15.39-2.45,23.09-1.49,15.07-2.76,30.17-3.75,45.28-1.82,27.89-2.74,55.87-1.85,83.81.4,12.44,1.17,24.88,2.51,37.26.31,2.89.66,5.79,1.04,8.67.19,1.46.39,2.92.61,4.38.05.33.1.65.15.98-.02-.14-.05-.28-.07-.42-.11-.65-.15-.9-.15-.9,0,0,.39,2.51.39,2.51,0,0,0-.05-.02-.15-.05-.35-.1-.69-.15-1.04.85,5.16,1.79,10.31,2.92,15.42,1.08,4.89,2.32,9.75,3.75,14.56.19.64.39,1.27.59,1.91-.12-.34-.23-.68-.35-1.02-.2-.57-.28-.8-.29-.8-.03,0,1.15,3.54,1.17,3.54,0,0,0-.03-.02-.09-.16-.55-.34-1.09-.51-1.64.07.19.13.38.2.58.75,2.14,1.54,4.27,2.39,6.38.53,1.33,1.68,3.77,2.19,4.84-.25-.5-.5-1-.75-1.5-.28-.57-.63-1.28-1.05-2.15.35.72.7,1.43,1.05,2.15.72,1.47,1,2.03,1,2.03,0,0-.09-.2-.25-.53.32.63.65,1.27.99,1.89,0-.01-.01-.02-.02-.03-.45-.71-1.36-2.24-1.37-2.24,0,0,.37.63,1.47,2.51.05.08.09.16.14.24-.1-.13-.21-.27-.31-.4-.42-.54-.61-.76-.63-.76-.03,0,.31.51.78,1.16-.1-.09-.2-.18-.3-.26,0,0,0,0,0,0-.02,0,.32.41.79.95.14.19.28.39.42.58.39.66.54.92.54.92,0,0-.19-.34-.45-.79.06.08.12.17.18.25-.01,0,.02.04.08.1.52.71.94,1.27.97,1.27.02,0-.13-.24-.52-.83.12.11.25.23.39.35.46.52.81.91.83.91.01,0-.11-.16-.42-.54,0,0,0,0,0,0,.67.59,1.36,1.17,1.42,1.17.03,0-.1-.14-.45-.49-.24-.23-.47-.47-.71-.72.42.34.85.68,1.29,1.01.51.38,1.03.74,1.54,1.1-.14-.07-.27-.15-.41-.22-.56-.31-.81-.43-.85-.43-.15,0,2.27,1.52,2.41,1.52.04,0-.1-.12-.52-.42-.21-.15-.42-.3-.63-.45,2.79,1.52,5.59,2.74,8.55,3.88-.29-.08-.59-.17-.88-.24-.26-.06-.39-.09-.44-.09-.23,0,1.91.67,2.11.66.05,0-.05-.05-.41-.19-.13-.05-.25-.1-.37-.14.11.03.22.06.33.09.82.21,1.65.41,2.48.58,1.76.37,3.54.64,5.33.82,1.96.2,3.92.29,5.89.28s3.73-.1,5.59-.26c2.06-.18,4.12-.46,6.15-.82.87-.15,2.42-.52,2.47-.52.02,0-.26.07-1.04.27,1.05-.27,2.11-.49,3.17-.77,9.07-2.41,17.67-6.41,25.63-11.36,19.33-12.01,35.14-29.18,48.76-47.22,1.01-1.34,2-2.69,3-4.04.09-.13.17-.23.23-.32-.09.13-.12.17-.12.17,0,0,.35-.48.35-.48,0,0-.06.08-.23.31.04-.06.1-.14.17-.24.46-.65.93-1.3,1.39-1.95,1.94-2.75,3.84-5.53,5.7-8.33,3.87-5.84,7.59-11.78,11.16-17.81,7.68-12.93,14.73-26.24,21.33-39.75,14.62-29.97,27.03-61,38.06-92.45,12-34.22,22.34-69.02,31.39-104.13,9.29-36.04,17.21-72.44,23.82-109.07,3.23-17.93,6.14-35.91,8.7-53.95,1.25-8.8,2.42-17.61,3.5-26.43.26-2.1.51-4.2.76-6.31.05-.44.3-2.6.3-2.6,0,0-.03.25-.1.89-.01.1-.02.2-.03.29,0,0,0,0,0,.01,0,0,0,0,0-.01.01-.11.02-.2.03-.29.09-.79.18-1.58.27-2.38.48-4.29.94-8.58,1.37-12.88,3.24-31.93,5.3-64.02,5.36-96.12.03-14-.33-28.01-1.27-41.98-.42-6.26-.96-12.51-1.64-18.75-.33-3.01-.69-6.02-1.1-9.02-.19-1.38-.39-2.77-.58-4.15.05.33.1.66.16.99,0,.04.01.06.01.06,0,0-.36-2.42-.36-2.42,0,0,.03.27.14.99.02.12.04.25.05.37-.05-.35-.11-.7-.17-1.05-1.65-10.05-3.86-19.97-6.79-29.73.01.04.02.07.04.11.18.53.35,1.06.54,1.58.08.23.12.32.12.32.03,0-1.13-3.59-1.16-3.59,0,0,.06.24.24.84.07.25.15.49.22.74-.34-1-.7-1.99-1.07-2.98-.68-1.83-1.4-3.65-2.17-5.44.21.42.41.85.62,1.27.23.46.33.65.34.65.04,0-.84-1.93-1.37-3.05.3.48.43.69.44.69.06,0-2.55-4.5-2.62-4.5-.02,0,.11.26.47.91.13.24.26.48.39.72-2.49-4.22-4.69-8.6-5.93-13.37-.6-2.33-1.56-7.29,1.12-9.04.56-.37,1.19-.52,1.86-.52M762.38,516.89c.35.59.7,1.18,1.06,1.77.09.21.22.51.39.92.09.2.17.4.26.61-.22-.45-.44-.9-.67-1.34-.34-.66-.69-1.31-1.05-1.95M763.3,518.28s.17.32.39.78c-.03-.05-.06-.1-.1-.16-.05-.08-.1-.16-.15-.25-.11-.26-.15-.38-.14-.38M536.93,608.09c4.79-.01,13.15,9.14,14.64,10.92,3.76,4.52,7.18,10.29,9.3,15.78,1.36,3.52,2.79,8.01,1.81,11.85-9.58-11.98-19.16-23.95-28.74-35.93.55-1.88,1.62-2.62,2.99-2.63M533.94,610.72h0M533.94,610.72c-1.43,5.59-2.79,11.19-4.15,16.79-3.7,15.25-7.27,30.53-10.73,45.83-5.13,22.64-10.05,45.33-14.74,68.07-5.71,27.64-11.1,55.35-16.1,83.12-5.52,30.62-10.59,61.32-15.04,92.12-.17,1.14-.33,2.29-.49,3.44-12.99,34.7-26.6,69.17-40.93,103.35-20.95,49.97-43.43,99.32-67.87,147.69-22.21,43.95-46.05,87.09-71.96,128.97-23.82,38.5-49.44,75.91-77.13,111.73-.41.53-.98.77-1.69.77-7.9.02-32.4-30.03-24.28-40.54,3.18-4.11,6.33-8.24,9.45-12.4,26.56-35.33,51.61-73.18,74.75-111.65,25.72-42.75,49.37-86.72,71.42-131.47,24.14-49.02,46.36-98.98,67.06-149.54,22.77-55.61,43.73-111.97,63.26-168.8,21.3-61.98,40.89-124.54,59.18-187.47M562.68,646.65h0M503.51,1260.72c.24.38.49.75.74,1.13-.02-.02-.04-.04-.06-.06-.1-.13-.2-.25-.29-.38-.14-.24-.26-.46-.35-.64,0-.02-.02-.04-.03-.05M503.73,1261.2c.05.07.11.14.16.21.04.07.08.13.11.2-.03-.03-.05-.05-.08-.08-.06-.11-.13-.22-.2-.34M503.57,1261.2c.12.11.24.22.36.33.14.24.26.45.37.63-.08-.1-.17-.19-.25-.29-.17-.23-.33-.47-.49-.68M504.01,1261.61c.06.06.12.12.18.18.05.06.09.12.14.18.23.34.46.69.69,1.03-.22-.25-.44-.5-.65-.75-.12-.21-.24-.43-.36-.64M504.25,1261.85c.71.71,1.39,1.48,2.09,2.21-.23-.18-.46-.37-.69-.55-.07-.06-.14-.11-.2-.16-.12-.14-.23-.28-.35-.42-.26-.32-.52-.64-.77-.96-.03-.04-.05-.08-.08-.12M504.3,1262.17s.05.06.07.08c.07.12.13.23.19.34-.03-.04-.06-.08-.09-.13-.05-.09-.11-.19-.17-.3M504.75,1262.84s.11.06.3.2c.07.11.15.22.22.33,0,0,0,0,0,0-.2-.18-.36-.34-.45-.43-.03-.03-.05-.07-.08-.1h0M505.02,1262.99s.04.04.05.06c0,0-.02-.01-.02-.02,0-.01-.02-.03-.03-.04M505.07,1263.06c.1.07.22.17.37.29.21.25.42.5.63.75-.14-.12-.28-.24-.41-.36-.18-.21-.38-.44-.59-.67M759.41,486.14h0c-2.21,0-4.33.63-6.11,1.79-2.86,1.87-7.23,6.63-4.41,17.54,1.59,6.13,4.4,11.37,6.7,15.27.3.56.61,1.12.9,1.68.17.34.34.68.51,1.02.66,1.56,1.32,3.21,1.95,4.91.33.88.65,1.77.95,2.66,2.68,8.97,4.87,18.59,6.51,28.59l.13.8.02.15v.05c.2,1.33.39,2.65.57,3.98.38,2.85.75,5.82,1.07,8.83.64,5.86,1.18,12.06,1.61,18.42.87,13.01,1.28,26.57,1.25,41.44-.06,29.41-1.8,60.6-5.33,95.35-.43,4.22-.89,8.52-1.36,12.8l-.19,1.7c0,.06-.02.13-.02.2l-.11.96-.14,1.18c-.25,2.09-.5,4.18-.75,6.27-1.06,8.64-2.23,17.48-3.48,26.27-2.51,17.65-5.42,35.7-8.66,53.66-6.59,36.58-14.56,73.09-23.69,108.51-9.38,36.4-19.88,71.22-31.19,103.5-12,34.23-24.34,64.19-37.71,91.62-6.96,14.27-13.83,27.08-21.02,39.19-3.62,6.09-7.3,11.97-10.95,17.47-1.85,2.79-3.73,5.53-5.58,8.15l-.88,1.24-.49.69-.13.18-.19.26-.31.42c-.88,1.19-1.75,2.38-2.64,3.55-15.82,20.95-30.65,35.35-46.65,45.29-7.83,4.87-15.74,8.38-23.51,10.44-.47.13-.95.24-1.42.35-.28.05-.56.11-.85.17-.44.1-1.18.27-1.67.35-1.87.33-3.72.57-5.5.73-1.67.15-3.32.23-4.92.23-1.73,0-3.44-.08-5.08-.24-1.55-.16-3.07-.39-4.53-.69-.65-.13-1.3-.29-1.95-.45-2.67-1.04-4.88-2.04-6.9-3.12-.32-.22-.64-.45-.95-.68-.22-.17-.44-.34-.66-.52-.11-.11-.21-.23-.32-.34-.32-.35-.65-.7-.97-1.04-.04-.06-.07-.11-.11-.17-.24-.45-.48-.91-.71-1.36-1-2.12-1.65-3.57-1.96-4.32-.77-1.92-1.53-3.95-2.26-6.03l-.15-.45c-.19-.6-.36-1.15-.53-1.7-1.32-4.44-2.5-9.02-3.61-14.01-.98-4.45-1.91-9.34-2.83-14.95l-.13-.88c-.21-1.43-.4-2.85-.59-4.28-.36-2.75-.71-5.61-1.02-8.49-1.23-11.41-2.04-23.4-2.47-36.67-.8-24.8-.2-51.97,1.83-83.05.95-14.49,2.17-29.22,3.73-45.02.74-7.47,1.56-15.2,2.43-22.98l.21-1.77c.01-.09.02-.19.03-.31l.09-.8c.25-2.13.5-4.26.75-6.38.45-3.73.91-7.46,1.38-11.19,3.69-29.32,8.14-59.49,13.59-92.22,4.63-27.8,9.94-56.95,15.76-86.65,4.79-24.4,9.96-49.38,15.39-74.23,4.15-18.99,8.4-37.73,12.63-55.71,2.78-11.78,5.14-21.57,7.45-30.8.3-1.21.6-2.42.91-3.63.06-.21.12-.43.16-.65,1.36-5.85-.44-11.74-2.18-16.23-2.41-6.22-6.26-12.76-10.59-17.96-2.69-3.23-12.12-13.76-20.67-13.74-4.97.01-8.98,3.16-10.46,8.22,0,.01,0,.02-.01.04-19.28,66.35-38.6,127.56-59.07,187.11-20.27,58.98-41.5,115.63-63.1,168.38-21.51,52.54-44,102.68-66.84,149.05-23.25,47.19-46.5,90.01-71.1,130.89-24.29,40.37-49.29,77.71-74.3,110.98-3.02,4.01-6.18,8.15-9.39,12.31-3.19,4.13-5.66,11.78.74,24.77,4.72,9.59,18.74,28.39,29.74,28.36,3.13,0,5.99-1.39,7.85-3.81,26.73-34.57,52.83-72.39,77.59-112.4,25.01-40.42,48.66-82.8,72.29-129.55,23.6-46.7,45.88-95.17,68.11-148.19,5.97-14.25,11.93-28.81,17.83-43.6-1.1,9.92-2.1,19.69-3,29.35-3.1,33.13-4.78,62.48-5.14,89.73-.4,30.54.81,55.5,3.8,78.54,3.77,28.96,9.19,50.26,17.56,69.07,13.23,29.7,29.7,50.04,50.33,62.16,9.66,5.68,20.71,8.54,32.85,8.51,6.95-.02,14.31-1,21.86-2.91,18.78-4.75,36.77-15.68,54.98-33.42,17.16-16.71,32.84-37.42,49.35-65.18,14.83-24.94,28.65-53.21,42.25-86.43,12.81-31.29,24.4-64.46,35.44-101.4,10.49-35.12,19.93-72.08,28.06-109.85,7.95-36.95,14.52-74.11,19.54-110.43,5.25-38.04,8.63-72.64,10.32-105.78,1.72-33.66,1.55-62.91-.5-89.41-2.31-29.85-6.82-53.94-14.2-75.82-3.82-11.33-9.09-22.4-16.11-33.84-3.59-5.85-8.53-11.43-13.22-14.91-2.71-2.01-6.85-4.69-11.54-4.67h0ZM493.58,838.92c.76-4.3,1.53-8.63,2.32-13.01,4.85-26.88,10.25-54.78,16.07-82.93,4.68-22.64,9.63-45.49,14.71-67.92,3.68-16.25,7.19-31.2,10.71-45.71.11-.47.23-.93.34-1.4l16.32,20.41c-2.06,7.06-4.09,13.98-6.06,20.62-17.49,58.98-35.76,116.06-54.41,169.94h0Z"/>
  <path d="M892.86,1260.17c-16.18.04-30.79-4.87-41.13-13.83-10.42-9.02-17.94-22.09-22.35-38.83-5.12-19.4-6.11-40.7-2.87-61.6.62-4.01,3.36-9.99,8.36-10,1.47,0,3.65.54,5.65,3.18,3.38,4.44,4.53,11.11,3.41,19.81-.29,2.61-.48,4.79-.6,6.76-.06,1-.11,2-.15,3v.16c-.01,1.85,0,4.18.08,6.49.04.92.08,1.83.13,2.75.04.38.08.96.11,1.48,0,.01,0,.02,0,.03.25,2.43.6,4.98,1.12,8.01,0,0,.29,1.32.39,1.73.31,1.34.66,2.68,1.03,3.96.16.55.32,1.09.49,1.63l.11.36.21.56c.4,1.07.8,2.14,1.24,3.19.57,1.34,1.23,2.69,1.86,4l.07.14.33.57c.26.45.53.9.8,1.34,1.47,2.35,3.1,4.56,4.86,6.54.13.15.43.45.69.72.13.14.3.31.48.52.37.35.73.7,1.11,1.04,1.04.93,2.13,1.82,3.25,2.64,2.4,1.76,5.02,3.29,7.79,4.54,6.41,2.9,14.41,4.56,21.97,4.54,5.12-.01,9.82-.76,13.95-2.21.16-.08.33-.15.51-.22.26-.1.52-.21.64-.26.48-.21.97-.43,1.45-.67.95-.46,1.93-.98,2.9-1.54,2.15-1.23,4.35-2.71,6.54-4.4,4.77-3.67,8.88-7.92,12.6-11.97l.1-.11.75-.88c.48-.56.94-1.13,1.4-1.69,1.06-1.3,2.1-2.61,3.12-3.95,1.91-2.5,3.86-5.19,5.78-8.01,3.87-5.66,7.63-11.74,11.5-18.59,3.52-6.24,6.95-12.76,10.46-19.95.9-1.85,1.79-3.71,2.67-5.57l1.45-3.14c1.56-3.41,3.14-6.97,4.7-10.58,5.3-12.28,10.3-24.98,15.28-38.82,5.88-16.34,10-28.94,13.36-40.84.88-3.11,3.3-6.78,7.24-6.9.04,0,.14,0,.17,0,4.62-.01,6.67,4.63,7.35,6.16,2.16,4.88,2.74,10.88,1.72,17.24.04.75-.15,1.46-.33,2.12l-.22.83c-2.01,7.76-3.91,16.25-5.8,25.97-1.39,7.16-2.61,14.29-3.64,21.19-.18,1.23-.36,2.45-.53,3.68l-.04.33-3.9-.32,3.88.5c-.23,1.82-.46,3.64-.68,5.46-.49,4.18-.9,8.31-1.22,12.27-.35,4.36-.61,8.64-.77,12.73-.01.3-.02.6-.03.9.01.54-.01,1.2-.05,2.04v.52c-.03,2.05-.03,4.1,0,6.14.04,2.11.1,4.21.21,6.32.05.99.11,1.98.17,2.97v.16c.12.92.18,1.48.21,1.78.34,3.01.64,5.77,1.1,8.52.17.63.27,1.29.36,1.89.12.54.24,1.08.36,1.62.41,1.72.86,3.41,1.34,5,.06.19.12.37.18.56l.18.52.12.32c.17.47.34.94.53,1.41.57,1.43,1.18,2.81,1.8,4.1l.44.86.37.62c.17.3.35.59.53.89.78,1.24,1.6,2.41,2.45,3.48.42.53.87,1.05,1.31,1.56l.15.18c.16.15.3.31.44.46l.42.37c.83.74,1.61,1.44,2.42,2.04,2.26,1.69,4.75,3.04,7.42,4.02l.65.23.5.15.16.04c.6.15,1.2.31,1.81.43,1.47.31,3.02.53,4.62.66,1.26.1,2.55.15,3.84.15,5.48-.01,11.1-.97,16.68-2.85.45-.15.9-.31,1.35-.47l.35-.14c.75-.3,1.49-.61,2.23-.93,1.58-.7,3.2-1.49,4.8-2.35,3.26-1.75,6.56-3.85,9.83-6.24,6.03-4.42,11.87-9.76,17.86-16.32,2.57-2.82,5.02-5.74,7.92-9.48,2.64-3.39,5.32-7.06,7.96-10.9,5.08-7.39,9.96-15.3,14.92-24.19,4.38-7.84,8.74-16.34,12.96-25.27l1.12-2.41.99-2.15c.92-2.02,1.82-4.04,2.71-6.06,1.74-3.95,3.47-8.02,5.15-12.09,5.03-12.19,9.22-23.14,12.8-33.47,2.36-8.44,4.74-15.97,7.29-23.01,1.94-5.36,4.96-6.57,7.15-6.63.04,0,.14,0,.17,0,4.62-.01,6.67,4.63,7.35,6.16,2.68,6.05,2.96,13.97.76,21.7l-.36,1.22c-1.92,6.55-4.04,13.25-6.31,19.93l-.3,1.04c-.35,1.23-.69,2.46-1.02,3.69l-.31,1.15c-1.46,5.53-2.8,11.07-4,16.47-1.39,6.28-2.62,12.51-3.65,18.52-.56,3.29-1.08,6.57-1.53,9.77l-.33,2.56c-.19,1.57-.37,3.15-.53,4.72-.36,3.41-.64,6.79-.86,10.06-.11,1.77-.21,3.53-.28,5.31l-.08,2.24c-.04,3.52,0,6.52.1,9.35.06,1.57.14,3.14.24,4.71.13,1.07.22,1.88.23,2.53.28,2.56.62,5.07,1.03,7.48.17.64.27,1.3.36,1.91.09.42.18.84.28,1.25.3,1.29.62,2.57.97,3.84.22.78.44,1.57.68,2.35,0,0,0,0,0,0,.47.95.87,1.8.97,2.67.11.32.21.63.34.93.55,1.38,1.15,2.75,1.77,4.05.22.46.45.92.68,1.37l.26.51c1.39,2.31,2.77,4.54,4.34,6.58.85,1.1,1.75,2.18,2.68,3.2.12.13.41.41.63.64.1.1.24.24.4.42.2.2.41.39.62.59,3.96,3.66,8.57,6.64,13.7,8.86,3.26,1.41,4.71,1.86,7.68,2.59,3.63.89,7.72,1.56,12.9,2.11,4.23.45,8.4.67,12.41.66,5.37-.01,10.6-.44,15.53-1.28,13.98-2.37,26.32-8.31,36.67-17.64,1.79-1.62,3.63-3.46,5.77-5.8.13-.17.26-.32.37-.44.26-.3.56-.64.68-.78.39-.48.78-.95,1.15-1.43.83-1.05,1.63-2.12,2.41-3.21,2.7-3.79,5.14-7.85,7.25-12.09l.02-.05c.16-.41.39-.91.64-1.35.26-.59.52-1.18.77-1.78.56-1.34,1.07-2.67,1.52-3.95.2-.55.52-1.67.75-2.47.18-.6.45-1.53,1.02-2.31,1.33-2.89,3.48-5.62,6.88-5.63,1.46,0,3.62.55,5.66,3.23,4.26,5.6,4.79,15.16,3.11,21.71-.32,1.25-.65,2.51-1.02,3.75-5.91,19.92-19.3,38.77-35.83,50.43-13.99,9.87-31.25,15.34-49.92,15.83-1.14.03-2.28.05-3.43.05-19.19.05-34.89-3.81-46.66-11.47-21.04-13.68-32.72-40.4-34.72-79.4-.23-4.41-.32-8.93-.28-13.54-5.46,10.78-10.96,20.56-16.64,29.59-12,19.1-24.03,33.81-36.77,44.96-14.56,12.74-30.32,20.15-45.57,21.42-1.44.12-2.88.18-4.3.19-15.12.04-28.16-6.44-36.73-18.23-8.83-12.15-13.87-28.28-15.87-50.75-.64-7.2-.96-14.53-.96-22.11-9.05,20.76-18.13,38.07-28.01,53.48-9.24,14.41-17.9,24.98-27.25,33.26-10.59,9.37-21.39,14.49-32.12,15.22-1.68.12-3.38.18-5.07.18Z"/>
  <path d="M1171.99,1033.35c1.94,0,3.1,2.33,3.77,3.84,2.59,5.86,2.28,13.02.57,19.05-.11.4-.23.8-.35,1.19-1.95,6.66-4.05,13.28-6.29,19.87.48-1.7.98-3.39,1.48-5.08,1.53-5.13,3.27-10.18,4.9-15.27.08-.24.17-.47.25-.71-2.67-6.28-5.33-12.55-8-18.83.53-1.45,1.65-4,3.6-4.06.02,0,.04,0,.07,0M1168.33,1037.41h0M1168.33,1037.41c-2.18,7.67-4.61,15.29-7.24,22.85,2.15-7.71,4.52-15.36,7.24-22.85M1007.9,1049.23c1.94,0,3.1,2.33,3.77,3.84,2.61,5.9,2.22,12.98.57,19.05.29-1.07.49-1.81.62-2.29-.08.29-.16.61-.23.87-2.25,8.66-4.14,17.42-5.85,26.2-1.38,7.09-2.61,14.21-3.67,21.36-.18,1.24-.36,2.48-.53,3.72-.02.16-.05.33-.07.49.02-.16.04-.33.06-.49.05-.39.07-.54.07-.54,0,0-.3,2.15-.29,2.15,0,0,.02-.15.08-.54.03-.19.05-.39.08-.58-.24,1.85-.47,3.7-.69,5.56-.48,4.13-.89,8.26-1.23,12.4-.35,4.29-.62,8.59-.78,12.89-.05,1.24-.06,2.49-.12,3.73.01-.29.02-.55.04-.79,0,.24-.01.47-.02.63-.02,2.08-.02,4.16.02,6.25.04,2.15.11,4.3.21,6.44.05,1.01.11,2.03.18,3.04,0,.08.01.18.02.28-.02-.18-.04-.37-.07-.58.02.2.04.39.07.59.07.81.22,2.07.23,2.07,0,0,0-.09-.03-.3.35,3.1.69,6.19,1.21,9.28.04.26.09.57.14.81,0,.04.02.08.03.12.07.36.14.72.2,1.08-.03-.2-.06-.38-.08-.55.13.6.26,1.21.41,1.81.42,1.75.88,3.5,1.4,5.23.12.39.26.77.39,1.16-.08-.23-.17-.45-.25-.68-.12-.31-.17-.44-.17-.44-.02,0,.62,1.79.62,1.79h0c-.05-.22-.12-.45-.19-.67.24.65.47,1.31.73,1.96.59,1.48,1.23,2.95,1.93,4.38.17.35.35.69.52,1.03-.03-.05-.07-.11-.1-.16-.16-.26-.23-.36-.24-.36-.04,0,.67,1.29.7,1.29.01,0-.04-.11-.18-.4-.06-.12-.12-.24-.18-.36.34.56.66,1.14,1.02,1.7.83,1.32,1.73,2.6,2.69,3.83.52.66,1.07,1.28,1.61,1.92.02.03.05.05.07.08.04.06.29.35.49.52.1.1.2.21.29.31-.09-.1-.17-.19-.24-.27,1.07.95,2.1,1.91,3.25,2.76,2.56,1.91,5.4,3.45,8.4,4.55.21.08.42.15.63.23,0,0-.01,0-.01,0,0,0,.11.04.44.15.06.02.11.04.17.06-.06-.02-.12-.04-.17-.06-.14-.05-.28-.1-.43-.14.09.03.71.23.86.26.72.18,1.45.37,2.18.52,1.68.35,3.39.59,5.1.73,1.39.11,2.78.17,4.17.16,6.08-.02,12.16-1.12,17.91-3.05.48-.16.95-.33,1.42-.5.08-.03.16-.06.22-.08-.18.07-.24.1-.23.1.02,0,.55-.2.53-.2,0,0-.09.03-.3.1.07-.03.17-.07.28-.12.78-.32,1.56-.64,2.34-.98,1.72-.76,3.41-1.59,5.07-2.48,3.58-1.92,7.01-4.13,10.29-6.53,6.72-4.93,12.82-10.68,18.44-16.83,2.5-2.74,4.97-5.67,8.12-9.71,2.81-3.61,5.5-7.31,8.09-11.08,5.44-7.91,10.43-16.12,15.11-24.49,4.66-8.34,8.99-16.86,13.08-25.5.09-.2.19-.4.28-.6,0-.01.04-.09.13-.28.13-.27.26-.54.38-.82-.18.38-.3.64-.38.82-.04.09-.09.18-.13.28,0,0,0,0,0,0,0,0,.43-.92.56-1.21.43-.93.86-1.87,1.29-2.8.93-2.03,1.84-4.07,2.74-6.11,1.78-4.04,3.51-8.09,5.19-12.17,4.59-11.11,8.97-22.38,12.92-33.79-1.79,6.44-3.43,12.91-4.98,19.38-4.26,17.76-7.63,36.03-9.17,54.37-7.34,15.95-15.4,31.59-24.74,46.46-10.07,16.03-21.73,31.58-36.03,44.1-12.1,10.59-27.02,19.11-43.32,20.47-1.34.11-2.67.17-3.98.17-13.35.03-25.49-5.51-33.56-16.62-10.05-13.84-13.66-32.11-15.14-48.8-1.28-14.42-1.18-28.92-.13-43.35,1.53-3.87,3.03-7.75,4.5-11.64,6.43-16.99,12.8-34.3,17.48-51.87.07-.28.16-.55.24-.82-2.67-6.28-5.33-12.55-8-18.83-6.07,22.4-10.18,45.39-12.83,68.43-.56,4.9-1.03,9.81-1.39,14.73-9.97,25.23-21.4,50.15-36.02,72.96-7.51,11.72-16.08,23.18-26.55,32.44-8.26,7.31-18.55,13.48-29.8,14.25-1.59.11-3.2.17-4.82.17-13.76.03-28.09-3.81-38.56-12.87-11.02-9.55-17.46-22.96-21.13-36.87-5.07-19.24-5.84-40.33-2.79-60.01.38-2.44,2.15-6.68,4.51-6.69.79,0,1.64.47,2.54,1.64,3.4,4.47,3.35,11.47,2.64,16.97.02-.22.05-.45.07-.67.03-.27.04-.38.04-.38-.02,0-.41,2.92-.39,2.92,0,0,.03-.14.08-.47.07-.45.14-.92.2-1.41-.26,2.33-.48,4.66-.62,7-.06,1.03-.11,2.06-.15,3.09,0,.05,0,.11,0,.16,0-.17,0-.33,0-.5,0-.45,0-.63,0-.63-.02,0-.07,2.72-.06,2.72,0,0,0-.1.02-.35.02-.42.03-.83.04-1.25,0,2.26,0,4.52.09,6.79.04.97.08,1.94.14,2.91-.02-.16-.03-.27-.05-.27,0,0,0,0,0,0-.12.39.06,1.12.14,1.62.01.2.03.39.04.59.02.32.03.46.03.46,0,0-.02-.4-.05-.89,0,.03,0,.05,0,.08.29,2.8.7,5.59,1.17,8.37,0-.03-.01-.05-.02-.08-.13-.57-.18-.78-.19-.78-.03,0,.34,1.85.36,1.85,0,0-.02-.21-.12-.78-.01-.07-.02-.14-.04-.21.14.62.27,1.25.42,1.87.33,1.39.68,2.77,1.08,4.14.21.73.44,1.45.66,2.18,0-.01,0-.03-.01-.04-.17-.45-.24-.62-.25-.62-.03,0,.49,1.54.52,1.54,0,0-.04-.17-.18-.64-.03-.08-.05-.17-.08-.25.51,1.34,1,2.69,1.56,4.01.6,1.42,1.27,2.8,1.95,4.18.05.11.1.2.14.29-.17-.29-.24-.4-.26-.4-.03,0,.43.86.46.86.01,0-.04-.12-.2-.46.02.04.05.08.08.13.39.67.78,1.33,1.19,1.99,1.55,2.49,3.3,4.86,5.25,7.06.29.33,1.35,1.4,1.33,1.4,0,0-.14-.12-.46-.43.57.55,1.14,1.1,1.73,1.63,1.13,1.02,2.32,1.98,3.55,2.88,2.65,1.94,5.5,3.6,8.49,4.95,6.75,3.06,15.22,4.91,23.59,4.89,5.29-.01,10.54-.77,15.28-2.45.07-.03.19-.07.36-.13-.12.04-.24.09-.36.13-.06.02-.09.03-.1.03-.04,0,1.18-.48,1.46-.6.53-.23,1.06-.48,1.59-.73,1.07-.52,2.12-1.08,3.15-1.67,2.43-1.4,4.76-2.98,6.98-4.69,4.8-3.69,9-7.98,13.09-12.43.05-.06.1-.11.14-.15-.21.25-.28.34-.27.34.02,0,.55-.61.53-.61,0,0-.08.07-.26.27.03-.04.06-.07.1-.12.24-.28.48-.57.72-.85.48-.57.96-1.15,1.44-1.73,1.09-1.33,2.15-2.68,3.2-4.05,2.04-2.67,4-5.4,5.9-8.18,4.18-6.11,8.04-12.43,11.68-18.87,3.73-6.6,7.24-13.34,10.57-20.16.91-1.86,1.8-3.73,2.69-5.61.04-.09.1-.21.15-.32-.08.17-.18.39-.32.68.11-.23.22-.46.32-.69.1-.2.18-.4.18-.4,0,0-.04.1-.16.35.07-.15.14-.3.21-.45.37-.79.73-1.58,1.09-2.37,1.62-3.54,3.19-7.09,4.73-10.66,5.54-12.84,10.63-25.88,15.37-39.05,4.87-13.55,9.53-27.23,13.44-41.1.41-1.46,1.72-4,3.6-4.06.02,0,.04,0,.07,0M1013.07,1069.03s-.06.22-.21.79c.11-.43.21-.79.21-.79M1169.69,1077.3c-.11.38-.22.76-.32,1.14-.35,1.24-.69,2.48-1.03,3.72v.03c.06-.24.12-.49.19-.73,0,0,0,0,0,0,0,0-.53,1.93-.52,1.93,0,0,.03-.12.12-.41.07-.26.14-.52.21-.78-.1.39-.21.77-.31,1.16-1.45,5.51-2.8,11.05-4.04,16.62-1.38,6.21-2.62,12.44-3.69,18.71-.56,3.29-1.08,6.58-1.54,9.88-.02.13-.04.25-.05.36.01-.08.02-.17.03-.25.05-.42.07-.58.07-.58,0,0-.23,1.63-.22,1.63,0,0,.03-.21.12-.8-.1.76-.19,1.52-.29,2.27-.19,1.6-.37,3.19-.54,4.79-.35,3.4-.65,6.8-.87,10.21-.12,1.8-.21,3.6-.29,5.4-.03.76-.06,1.51-.08,2.27,0,0,0,.01,0,.02,0-.16,0-.33,0-.49,0-.53,0-.73,0-.73-.01,0-.07,2.13-.05,2.13,0,0,.02-.25.04-.9-.03,3.2-.02,6.41.1,9.61.06,1.65.14,3.29.25,4.93-.02-.16-.04-.33-.06-.51.03.23.05.46.07.69,0,.05,0,.1,0,.14.01.21.04.48.07.74.02.29.05.58.08.87.3,2.88.68,5.76,1.17,8.62.03.23.08.56.14.84.02.1.04.19.06.29.07.37.15.74.2,1.11-.03-.19-.05-.37-.08-.54.1.48.21.96.32,1.43.31,1.34.65,2.67,1.01,4,.23.82.46,1.64.71,2.45.04.13.09.28.15.43-.04-.08-.08-.16-.12-.25.06.12.11.24.17.36.04.09.07.18.11.27.42,1.01.71,2.11,1.11,3.12.58,1.45,1.2,2.87,1.87,4.28.31.66.65,1.31.97,1.96.02.04.04.08.06.12-.01-.02-.03-.04-.04-.07-.13-.22-.19-.3-.2-.3-.03,0,.49.96.51.96.01,0-.06-.16-.27-.59,1.47,2.44,2.94,4.84,4.68,7.1.92,1.19,1.88,2.34,2.89,3.45.24.26,1.14,1.14,1.12,1.14,0,0-.17-.15-.62-.58.46.44.91.88,1.37,1.31,4.34,4.01,9.38,7.23,14.8,9.58,3.45,1.49,5.12,2.02,8.3,2.8,4.4,1.08,8.92,1.72,13.42,2.2,4.26.45,8.54.69,12.83.68,5.42-.01,10.83-.43,16.18-1.34,14.48-2.46,27.51-8.56,38.63-18.59,2.22-2,4.28-4.14,6.29-6.34.05-.05.11-.12.17-.19,0,0,.01-.02.02-.02.01-.01.02-.03.04-.04-.01.01-.02.03-.04.04,0,0-.01.02-.02.02-.06.06-.11.12-.17.19-.2.22-.28.31-.28.31-.01,0,.97-1.11,1.21-1.4.41-.49.81-.99,1.21-1.5.87-1.1,1.71-2.22,2.52-3.36,2.85-4,5.38-8.23,7.56-12.62.04-.09.09-.18.13-.27,0,.02-.01.04,0,.04.01,0,.11-.19.33-.68.07-.16.14-.32.21-.48.03-.05.06-.1.09-.15h0s0,0,0-.01h0s0,.01,0,.01c-.03.05-.06.1-.09.15.3-.67.59-1.34.87-2.02.57-1.37,1.1-2.75,1.6-4.15.35-.99,1.08-3.65,1.11-3.65.01,0-.15.68-.64,2.59.58-2.26,2.17-6.73,4.51-6.74.77,0,1.62.48,2.54,1.69,3.47,4.56,3.8,13.02,2.44,18.38-.31,1.21-.63,2.41-.98,3.61-5.62,18.94-18.21,36.97-34.33,48.34-13.91,9.81-30.85,14.67-47.77,15.11-1.1.03-2.22.05-3.34.05-15.23.04-31.64-2.46-44.52-10.84-24.84-16.16-31.53-48.79-32.95-76.33-.55-10.74-.28-21.52.62-32.28,1.03-2.25,2.05-4.5,3.06-6.75,7.27-16.31,13.92-33,19.69-49.96M969.4,1146.9s-.01.03-.02.05c0,0,0,0,0,0,0-.02.02-.04.03-.05M999.8,1154.42s-.02.48-.08,1.84c.03-.8.07-1.84.08-1.84M1156.97,1168.41c.2,1.66.25,2.22.24,2.22s-.09-.58-.15-1.16c-.03-.3-.05-.59-.08-.89,0-.06,0-.12-.01-.18M1000.14,1172.9c.11.92.17,1.48.2,1.78-.07-.59-.13-1.18-.2-1.77,0,0,0,0,0,0M839.5,1178.38c.04.35.08.99.11,1.51,0-.05-.01-.1-.02-.15,0-.11-.02-.21-.02-.32-.02-.35-.05-.7-.07-1.05M1158.3,1178.67s.12.49.35,2c-.04-.19-.08-.38-.12-.57-.03-.15-.06-.3-.09-.45-.04-.23-.08-.46-.12-.68-.02-.18-.03-.3-.02-.3M1297.79,1180.25s0,0,0,0c-.2.36-.36.75-.53,1.12.05-.14.27-.67.53-1.13M1001.5,1183.42s.11.49.34,2c-.04-.17-.08-.35-.12-.52-.03-.15-.06-.29-.08-.44-.03-.16-.06-.33-.09-.49-.04-.3-.07-.54-.05-.54M1160.84,1188.98c.51,1.04.68,1.41.66,1.41-.02,0-.27-.5-.51-1.03-.04-.09-.07-.18-.11-.27-.01-.04-.03-.07-.04-.11M1012.6,1208.49s.15.15.54.57c-.01,0-.02-.02-.03-.03,0,0-.01,0-.02-.01-.16-.17-.33-.34-.49-.52,0,0,0-.01,0-.01M1171.97,1025.54h0c-.07,0-.21,0-.29,0-2.78.08-7.87,1.39-10.7,9.21,0,0,0,.01,0,.02-2.57,7.1-4.97,14.68-7.34,23.16-3.55,10.22-7.7,21.06-12.68,33.14-1.68,4.07-3.4,8.1-5.12,12-.89,2.01-1.79,4.02-2.7,6.02-.3.65-.59,1.29-.89,1.94l-.39.84-.45.97s-.03.06-.04.09l-.03.06-.29.61c-4.19,8.84-8.51,17.26-12.84,25.03-4.9,8.77-9.71,16.58-14.73,23.88-2.59,3.77-5.22,7.37-7.82,10.71-2.85,3.66-5.23,6.51-7.72,9.24-5.81,6.36-11.46,11.53-17.29,15.8-3.12,2.29-6.27,4.29-9.37,5.95-1.51.81-3.04,1.56-4.53,2.22-.7.31-1.4.6-2.11.88l-.14.06-.07.03c-.42.15-.84.3-1.27.44-5.18,1.74-10.38,2.63-15.44,2.64-1.18,0-2.36-.04-3.52-.14-1.43-.12-2.82-.32-4.13-.59-.52-.11-1.02-.24-1.53-.37l-.22-.05c-.11-.03-.25-.08-.35-.11l-.09-.03c-.13-.04-.25-.09-.38-.14-2.32-.86-4.49-2.03-6.44-3.49-.67-.5-1.4-1.15-2.17-1.84l-.26-.23c-.1-.11-.2-.22-.32-.33h-.01c-.43-.5-.85-.99-1.25-1.5-.76-.97-1.51-2.02-2.21-3.14-.16-.26-.31-.52-.47-.78-.11-.19-.22-.37-.33-.56l-.06-.12c-.09-.18-.19-.36-.28-.55-.59-1.2-1.15-2.49-1.68-3.82-.17-.44-.33-.88-.49-1.32l-.12-.32c-.05-.15-.1-.3-.15-.44-.05-.14-.1-.28-.14-.42-.46-1.51-.89-3.12-1.28-4.77-.11-.47-.22-.95-.32-1.42-.1-.7-.18-1.17-.24-1.49-.06-.33-.13-.65-.21-.96-.38-2.46-.66-4.96-.96-7.59l-.02-.14c-.03-.31-.09-.85-.19-1.69v-.04c-.07-.97-.12-1.94-.17-2.91-.1-2-.17-4.09-.2-6.19-.03-1.96-.04-3.99-.02-6.03,0-.11,0-.26.01-.42.03-.67.06-1.31.05-1.94,0-.33.02-.66.03-.99.15-4.03.41-8.25.76-12.56.32-3.92.72-8,1.21-12.14.21-1.77.43-3.54.66-5.31l.02-.13.06-.44c.17-1.22.34-2.43.53-3.65,1.01-6.84,2.23-13.91,3.61-21.01,1.87-9.63,3.75-18.05,5.74-25.73l.22-.82c.18-.67.44-1.65.46-2.82,1.07-6.99.37-13.64-2.06-19.12-3.11-7.03-7.66-8.49-10.93-8.49h0c-.07,0-.21,0-.29,0-6.04.18-9.62,5.34-10.87,9.71,0,0,0,.02,0,.03-3.33,11.8-7.42,24.31-13.27,40.58-4.95,13.76-9.92,26.38-15.19,38.6-1.54,3.56-3.11,7.09-4.67,10.5-.36.78-.71,1.56-1.08,2.34l-.2.44s0,0,0,.01c0,0,0,.01,0,.02,0,0,0,0,0,0l-.13.28c-.88,1.85-1.76,3.69-2.66,5.53-3.48,7.12-6.86,13.57-10.35,19.74-3.82,6.76-7.52,12.74-11.32,18.3-1.88,2.76-3.79,5.39-5.66,7.84-1.01,1.33-2.04,2.62-3.04,3.85-.45.55-.9,1.1-1.36,1.64l-.29.34-.42.49-.03.03c-3.6,3.92-7.57,8.03-12.11,11.52-2.05,1.58-4.11,2.96-6.1,4.11-.89.51-1.79.99-2.67,1.41-.43.21-.87.41-1.31.61-.09.04-.31.13-.53.21-.18.07-.35.15-.52.22-3.67,1.26-7.96,1.92-12.49,1.93-7.02.02-14.43-1.51-20.35-4.19-2.53-1.15-4.91-2.54-7.1-4.14-1.01-.74-2-1.55-2.95-2.4-.32-.29-.63-.59-.94-.88-.14-.16-.29-.33-.45-.49-.22-.22-.46-.48-.6-.63-1.58-1.79-3.09-3.81-4.44-5.98-.25-.41-.5-.82-.74-1.24l-.26-.44h0c-.58-1.21-1.24-2.56-1.78-3.83-.4-.95-.78-1.96-1.18-3.03l-.17-.45-.09-.3c-.15-.5-.31-1-.45-1.5-.35-1.22-.68-2.5-.98-3.78-.09-.39-.18-.78-.26-1.17l-.09-.41c-.48-2.85-.83-5.34-1.06-7.63-.03-.5-.07-1.05-.11-1.44-.05-.87-.09-1.73-.13-2.6-.08-2.2-.09-4.43-.08-6.33v-.02c.04-.98.08-1.95.14-2.92.11-1.9.3-3.98.58-6.54,1.25-9.73-.16-17.34-4.18-22.62-3.14-4.12-6.84-4.73-8.77-4.72-6.98.02-11.22,6.91-12.21,13.31-3.32,21.43-2.3,43.28,2.95,63.19,4.62,17.52,12.55,31.24,23.57,40.78,11.05,9.57,26.57,14.82,43.69,14.78,1.77,0,3.56-.07,5.33-.19,11.61-.79,23.19-6.24,34.44-16.19,9.63-8.52,18.51-19.35,27.95-34.08,7.47-11.65,14.48-24.36,21.36-38.78.12,1.89.27,3.77.44,5.64,2.06,23.2,7.34,39.95,16.6,52.7,9.33,12.84,23.5,19.88,39.9,19.84,1.52,0,3.07-.07,4.61-.2,16.09-1.34,32.62-9.08,47.82-22.38,13.03-11.41,25.3-26.39,37.5-45.82,3.31-5.27,6.56-10.79,9.78-16.6,2.27,39.61,14.52,66.9,36.42,81.15,12.42,8.08,28.84,12.15,48.8,12.1,1.18,0,2.35-.02,3.52-.05,19.44-.51,37.45-6.23,52.07-16.54,17.23-12.15,31.18-31.78,37.32-52.51.41-1.39.77-2.74,1.06-3.89,1.85-7.23,1.45-18.16-3.79-25.04-3.01-3.95-6.43-4.78-8.77-4.77-4.34.01-7.95,2.76-10.31,7.7-.52.82-.97,1.83-1.33,3.05-.16.56-.54,1.87-.68,2.26-.43,1.21-.91,2.47-1.44,3.75-.22.53-.45,1.05-.68,1.57-.22.42-.47.94-.68,1.45-2.02,4.06-4.33,7.9-6.89,11.48-.74,1.04-1.52,2.07-2.3,3.06-.36.46-.73.91-1.1,1.36-.11.13-.37.43-.6.69-.12.13-.23.27-.34.4-2.05,2.23-3.79,3.99-5.49,5.52-9.79,8.83-21.47,14.44-34.71,16.69-4.73.8-9.74,1.22-14.89,1.23-3.86,0-7.9-.21-11.98-.64-5-.53-8.94-1.17-12.38-2.02-2.78-.68-4.05-1.08-7.06-2.38-4.72-2.04-8.96-4.78-12.6-8.15-.17-.15-.33-.31-.49-.47-.13-.14-.27-.29-.41-.43-.19-.19-.42-.42-.55-.55-.8-.88-1.63-1.87-2.42-2.9-1.42-1.84-2.71-3.93-4.02-6.09l-.21-.43c-.21-.41-.41-.82-.61-1.24-.58-1.23-1.15-2.51-1.67-3.82-.07-.17-.13-.35-.19-.53-.23-1.17-.69-2.21-1.09-3.05-.2-.65-.38-1.3-.56-1.95-.33-1.19-.64-2.43-.93-3.69-.08-.36-.16-.72-.24-1.08-.11-.72-.19-1.21-.25-1.53-.06-.33-.13-.64-.21-.94-.35-2.14-.65-4.36-.89-6.63-.03-.78-.12-1.6-.22-2.46-.1-1.46-.17-2.98-.23-4.5-.1-2.73-.13-5.64-.09-9.14l.03-.75c.02-.46.03-.93.05-1.39.07-1.71.17-3.46.28-5.22.21-3.21.49-6.54.84-9.91.16-1.55.34-3.11.53-4.66.07-.61.15-1.21.23-1.82l.05-.36.04-.31c.44-3.15.95-6.4,1.51-9.65,1.02-5.94,2.23-12.11,3.61-18.33,1.19-5.36,2.52-10.85,3.97-16.32l.2-.76.1-.36c.33-1.21.67-2.43,1.01-3.65l.27-.94c2.27-6.7,4.4-13.42,6.33-20l.05-.18c.1-.35.21-.71.31-1.06,0,0,0-.01,0-.02,1.44-5.05,3.22-14.94-.94-24.35-3.11-7.03-7.66-8.5-10.93-8.49h0Z"/>
  <line class="st0" x1="945.92" y1="1119.72" x2="1060.24" y2="1088.75"/>
  <path d="M945.82,1137.17c-4.47,0-7.68-4.83-8.81-13.27-1.16-8.63.1-19.43,7.48-21.42l114.32-30.97c.5-.13,1.01-.2,1.52-.21,4.47-.01,7.68,4.82,8.81,13.26,1.16,8.64-.1,19.43-7.48,21.43l-114.32,30.97c-.5.13-1.01.2-1.52.21h0Z"/>
  <path d="M1060.34,1075.21c5.55-.01,8.21,24.87.3,27.01-4.73,1.28-9.46,2.56-14.19,3.84-20.52,5.56-41.03,11.11-61.55,16.67-12.86,3.48-25.72,6.97-38.58,10.45-.17.05-.34.07-.51.07-5.55.01-8.21-24.87-.3-27.01,4.73-1.28,9.46-2.56,14.19-3.84,20.52-5.56,41.03-11.11,61.55-16.67,12.86-3.48,25.72-6.97,38.58-10.45.17-.05.34-.07.51-.07M1060.32,1067.4c-.85,0-1.7.12-2.53.34l-15.43,4.18-23.15,6.27-61.55,16.67-14.19,3.84c-9.82,2.66-11.7,15.52-10.33,25.72,2.02,15.05,9.55,16.66,12.69,16.65.85,0,1.7-.12,2.53-.34l19.29-5.23,19.29-5.23,61-16.52.55-.15,7.14-1.93,7.05-1.91c9.82-2.66,11.7-15.52,10.33-25.72-2.02-15.05-9.55-16.66-12.69-16.65h0Z"/>
  <path d="M753.04,1293.09c-5.06.01-9.82-1.21-13.78-3.55-5.99-3.53-10.53-9.8-13.48-18.63-5.79-17.31-5.17-37.57,1.93-63.74,5.95-21.91,15.96-44.02,30.61-67.6,0,0,.1-.16.1-.16,3.27-5.21,6.6-10.2,9.9-14.83,14.06-19.74,28.16-35.06,43.11-46.82,9.74-7.67,24.46-17.87,39.78-17.9h.73c13.91.26,24.48,10.85,28.27,28.34,4.05,18.69,2.09,40.11-5.98,65.46-7.14,22.42-18.39,45.19-33.43,67.67-13.39,20.02-27.81,36.73-42.87,49.66-10.57,9.08-24.78,19.77-40.99,21.84-1.29.16-2.6.25-3.89.25ZM747.43,1257.79c.42.1.84.2,1.26.28.8.14,1.65.23,2.54.27.26.01.53.02.8.01h0c3.71,0,8.36-1.06,12.43-2.81,14.91-6.41,27.25-17.93,36.33-27.25,13.3-13.64,25.74-30.32,36.97-49.55,5.96-10.21,10.8-19.83,14.79-29.42,2.03-4.88,3.86-9.74,5.43-14.45.81-2.42,1.56-4.83,2.22-7.15l.41-1.44.34-1.36c.15-.59.3-1.18.44-1.78.52-2.21.98-4.42,1.38-6.55.18-.98.35-1.96.5-2.94.02-.15.1-.82.13-1l.15-1.48c.13-1.25.25-2.5.32-3.75,0-.1,0-.22,0-.33,0-.23,0-.46.01-.69,0-.36,0-.73,0-1.1,0-.13,0-.27-.02-.4-.08-.57-.1-1.1-.11-1.51-.04-.28-.08-.5-.12-.72-.03-.18-.11-.61-.11-.61l-.12-.44-.12-.32c-.09-.25-.19-.53-.25-.68l-.21-.45s-.31-.56-.39-.68c-.27-.41-.6-.86-.95-1.29-.06-.06-.43-.47-.43-.47l-.54-.46c-.32-.25-.69-.51-1.06-.76-.72-.47-1.56-.85-2.5-1.28-.04-.02-.09-.04-.13-.05-.36-.09-.73-.18-1.09-.25-1.13-.22-2.34-.32-3.59-.32-2.81,0-5.98.58-9.43,1.7-2,.65-4.49,1.74-7.2,3.15-2.85,1.48-5.7,3.2-8.73,5.25-6.15,4.16-12.26,9.19-18.7,15.36-13.19,12.66-25.32,27.92-37.08,46.66-3.33,5.36-6.29,10.44-9.04,15.52-5.31,9.81-9.65,19.28-13.27,28.97-1.79,4.8-3.36,9.52-4.66,14.03,0,0-.28,1-.29,1.03-.05.2-.18.64-.22.82l-.15.6c-.21.86-.43,1.72-.63,2.58-.48,2.07-.91,4.13-1.27,6.11-.2,1.11-.39,2.24-.57,3.36l-.05.35-.07.66c-.11,1.09-.22,2.17-.3,3.26.15.9.03,1.86-.13,2.89,0,.37,0,.74.02,1.11,0,.29.03.58.05.88l.04.52s.11.71.17,1.09c.06.27.18.78.18.78,0,0,.34.94.39,1.08l.1.2c.11.22.21.45.31.67.1.14.2.27.27.38.27.4.56.79.86,1.17l.42.45.71.6c.32.24.69.5,1.07.74.67.42,1.44.77,2.34,1.17.04.02.09.04.14.05Z"/>
  <path d="M851.21,1063.76c.22,0,.43,0,.65,0,14.2.26,21.78,12.64,24.52,25.25,4.57,21.08.56,43.2-5.89,63.45-7.53,23.62-19.19,46.12-32.95,66.68-11.94,17.84-25.85,34.85-42.17,48.87-10.86,9.34-24.31,19.06-38.94,20.93-1.12.14-2.26.22-3.4.22-4.1.01-8.24-.92-11.79-3.01-6.02-3.55-9.62-10.08-11.76-16.51-6.61-19.77-3.34-41.82,2-61.48,6.39-23.54,17.32-45.9,30.16-66.56-3.08,5.01-2.87,12.95-1.28,18.4.64,2.21,2.56,6.52,4.84,6.51.8,0,1.65-.54,2.5-1.89-3.21,5.16-6.28,10.39-9.17,15.73-5.17,9.55-9.69,19.28-13.5,29.46-1.76,4.71-3.36,9.49-4.75,14.32-.09.32-.18.65-.28.97,0,0,0,0,0,0,0,0-.02.08-.08.28-.05.2-.11.39-.16.59,0,.02-.01.04-.02.06,0,0,0,0,0,.01,0,0,0,0,0-.01l.02-.06c.07-.26.13-.45.16-.59.03-.09.05-.18.08-.27,0,.03-.21.77-.27,1.01-.27,1.08-.54,2.16-.79,3.24-.49,2.09-.92,4.18-1.31,6.29-.21,1.15-.41,2.31-.58,3.47-.03.17-.05.32-.07.44.04-.38.05-.52.04-.52-.02,0-.16,1.07-.14,1.07,0,0,.04-.15.1-.55,0,.04,0,.07-.01.11-.17,1.72-.35,3.43-.46,5.16-.04.18-.07.44-.07.72,0,.31,0,.62,0,.93,0,.13-.02.26-.04.38.01-.09.03-.18.04-.27,0,.51,0,1.01.03,1.52.02.5.06,1.01.1,1.52-.03-.3-.06-.61-.11-.91-.04-.24-.06-.34-.07-.34-.05,0,.19,2.21.21,2.21,0,0,0,0,0-.01,0-.32-.01-.64-.03-.96.01.14.03.28.05.43.03.2.11.69.18,1.16-.09-.42-.18-.82-.19-.82,0,0,.04.25.17.93.12.63.17.87.18.87,0,0-.07-.47-.15-.99.08.38.17.77.21.93.02.06.05.17.08.3-.03-.08-.05-.13-.06-.13,0,0,.05.2.21.75.17.55.23.75.23.75,0,0-.24-.86-.39-1.37.13.33.42,1.17.51,1.4.14.33.33.66.46,1.01.04.1.06.18.09.25-.09-.12-.17-.25-.25-.37-.11-.26-.21-.49-.22-.51.03.15.11.33.22.51.14.32.3.67.33.67.01,0,0-.08-.08-.29.19.26.38.5.5.68.34.5.69.98,1.07,1.44.1.12.5.55.75.82-.14-.11-.23-.19-.24-.19,0,0,.05.06.2.2.17.16.24.22.24.22.01,0-.08-.1-.2-.23.32.27.86.73.98.83.46.35.93.69,1.42.99.9.56,1.84.99,2.81,1.42.21.1.44.17.67.25-.29-.07-.39-.1-.4-.1,0,0,.45.11.58.16-.06-.02-.12-.04-.18-.06.02,0,.05.01.08.02.52.13,1.05.25,1.58.35,1.02.18,2.04.29,3.08.33.32.01.64.02.96.02,4.91-.01,10.15-1.49,13.97-3.13,14.39-6.19,26.77-17.01,37.59-28.11,14.63-15,27-32.24,37.55-50.31,5.64-9.67,10.74-19.59,15.02-29.89,2.01-4.84,3.87-9.74,5.53-14.72.81-2.42,1.57-4.86,2.27-7.31.14-.49.28-.99.42-1.48-.08.33-.11.45-.11.45,0,0,.19-.76.23-.88-.04.14-.08.28-.12.43,0-.01,0-.02,0-.03.26-1.08.55-2.16.81-3.25.53-2.24,1-4.49,1.42-6.75.19-1.01.36-2.03.52-3.04.06-.37.09-.76.15-1.14-.02.19-.04.38-.05.57-.03.3-.03.41-.03.41.02,0,.19-1.55.19-1.55h0c-.05.18-.08.37-.11.56.17-1.83.39-3.65.49-5.48.02-.34,0-.75.03-1.14,0,.43,0,.85,0,1.27,0,.27.01.38.02.38.02,0,.04-2.07.02-2.07,0,0,0,0,0,0-.02.13-.04.27-.05.41,0-.44,0-.87-.01-1.31-.03-.93-.13-1.87-.14-2.8.04.13.06.18.07.18.04,0-.43-1.85-.43-1.94.02.24.05.48.09.72-.02-.09-.04-.17-.06-.26-.03-.11-.1-.37-.18-.66.05.13.08.22.09.22,0,0-.05-.21-.22-.76-.15-.5-.21-.69-.22-.69,0,0,.19.68.35,1.24-.14-.37-.39-1.1-.49-1.32-.06-.13-.19-.42-.32-.71.1.17.17.29.18.29,0,0-.06-.14-.24-.52-.17-.35-.24-.48-.25-.48,0,0,.15.35.31.71-.19-.33-.48-.86-.58-1.01-.38-.57-.78-1.13-1.21-1.66-.12-.14-.51-.55-.74-.81.15.13.27.23.28.23,0,0-.06-.07-.24-.24-.15-.15-.22-.2-.23-.2,0,0,.07.09.19.22-.28-.24-.68-.59-.79-.68-.45-.36-.92-.7-1.41-1.01-.96-.62-1.97-1.09-3.01-1.56-.19-.09-.4-.16-.61-.23l.09.02c.16.04.22.06.22.06.02,0-.51-.15-.55-.16.08.03.16.06.24.08-.49-.13-.98-.25-1.48-.34-1.43-.27-2.88-.39-4.33-.39-3.61,0-7.23.79-10.63,1.89-2.37.77-5.07,1.98-7.79,3.4-3.15,1.64-6.18,3.49-9.12,5.48-6.87,4.65-13.23,10.04-19.21,15.78-14.61,14.02-26.94,30.28-37.68,47.4,3.12-5.02,2.93-12.99,1.33-18.49-.64-2.2-2.57-6.52-4.85-6.52-.79,0-1.62.52-2.45,1.84,3.12-4.97,6.37-9.86,9.77-14.64,12.05-16.92,25.96-33.12,42.34-46.01,10.27-8.08,23.72-17.03,37.37-17.07M867.36,1101.34c.05.21.1.43.16.64.05.18.09.31.12.4,0,.27,0,.52.01.73,0-.08-.02-.16-.03-.24-.07-.51-.18-1.02-.26-1.54M867.64,1102.34s0,.02,0,.04h0s0-.02,0-.04M867.65,1103.11c.06.67.07,1.61.05,1.61-.01,0-.03-.42-.05-1.61M761.73,1141.48s-.03.04-.04.06c.01-.02.03-.04.04-.06M761.69,1141.54s-.04.06-.05.08c.02-.03.04-.06.05-.08M736.6,1244.61c.06,0,.07.51-.15,2.01,0-.04,0-.08,0-.12.02-.39,0-.79.03-1.17,0-.16.02-.32.03-.48.03-.15.07-.25.1-.25M851.19,1055.94h0c-16.52.04-31.98,10.72-42.18,18.74-15.24,11.99-29.59,27.57-43.87,47.62-3.34,4.68-6.71,9.73-10.02,15.02,0,0,0,0,0,0-.01.02-.02.04-.03.05,0,0,0,0,0,0h0s-.01.02-.02.03c0,0,0,.01-.01.02l-.02.03s-.01.02-.02.03c-14.85,23.9-25.02,46.35-31.06,68.64-7.32,26.95-7.91,47.93-1.87,66,3.26,9.75,8.37,16.73,15.2,20.76,4.56,2.69,10.02,4.1,15.77,4.09,1.45,0,2.92-.1,4.37-.28,17.24-2.2,32.06-13.32,43.04-22.76,15.32-13.17,29.98-30.14,43.57-50.45,15.24-22.78,26.65-45.88,33.9-68.66,8.29-26.03,10.28-48.1,6.08-67.48-4.2-19.38-16.17-31.12-32.01-31.41-.27,0-.54,0-.81,0h0ZM774.32,1168.79c11.59-18.46,23.51-33.48,36.47-45.91,6.28-6.02,12.22-10.91,18.18-14.95,2.91-1.97,5.64-3.61,8.34-5.01,2.52-1.31,4.8-2.31,6.61-2.9,3.06-1,5.83-1.5,8.23-1.51,1,0,1.96.08,2.85.25.17.03.36.07.58.13.73.33,1.32.61,1.76.9.25.16.49.33.72.51l.27.23h.02c.07.09.13.16.19.22.2.25.4.52.6.82.06.11.14.24.21.37.03.07.06.13.08.18.05.14.12.32.18.5l.07.2s.03.09.04.13c.03.14.05.29.08.43.02.11.04.22.06.33,0,.42.02.73.02.95.01.39.05.76.1,1.12,0,.18,0,.36,0,.54,0,.25-.01.5-.01.74v.2c-.06,1.09-.18,2.28-.31,3.54-.05.47-.1.95-.14,1.42-.02.17-.04.35-.06.52-.01.11-.02.21-.04.31-.15.95-.31,1.9-.49,2.85-.38,2.07-.83,4.21-1.34,6.36-.14.57-.28,1.15-.42,1.72-.12.46-.23.93-.35,1.39-.12.43-.24.86-.36,1.29-.65,2.27-1.39,4.62-2.18,7-1.54,4.62-3.33,9.39-5.33,14.18-3.92,9.42-8.69,18.89-14.56,28.95-11.07,18.97-23.32,35.38-36.4,48.8-8.83,9.06-20.8,20.24-35.08,26.38-3.61,1.55-7.69,2.49-10.9,2.49-.22,0-.43,0-.65-.01-.7-.03-1.37-.1-2-.21-.24-.04-.48-.1-.73-.15-.64-.29-1.23-.56-1.64-.82-.24-.15-.47-.31-.7-.49l-.31-.26-.13-.11c-.07-.07-.13-.14-.18-.2-.19-.23-.38-.5-.57-.78-.03-.04-.06-.09-.09-.14-.08-.17-.15-.32-.21-.44v-.03c-.06-.12-.11-.27-.16-.41-.04-.1-.07-.21-.11-.3-.02-.08-.05-.21-.08-.35-.05-.29-.09-.56-.11-.71v-.07s-.03-.36-.03-.36c-.02-.24-.04-.48-.04-.72,0-.24-.01-.49-.02-.73.13-.94.24-2.03.14-3.17.08-.92.17-1.86.27-2.83l.06-.58.04-.25c.17-1.08.35-2.17.55-3.24.35-1.92.77-3.91,1.24-5.93.2-.87.42-1.73.63-2.6l.13-.54c.04-.16.15-.55.19-.72l.02-.06.26-.93c1.27-4.42,2.81-9.04,4.56-13.74,3.56-9.51,7.83-18.83,13.05-28.48,2.71-5.01,5.63-10.01,8.92-15.31h0Z"/>
  <path d="M1180.46,1001.04c-5.19.01-8.96-5.41-11.67-10.14-2.12-3.71-3.72-8.23-4.39-12.4-1.34-8.35,1.02-10.56,1.8-11.29l14.25-13.36c1.92-1.8,3.89-2.18,5.21-2.18,5.19-.01,8.96,5.41,11.67,10.14,2.12,3.71,3.72,8.23,4.39,12.4,1.34,8.35-1.02,10.56-1.8,11.29l-14.25,13.36c-1.92,1.8-3.89,2.18-5.21,2.18h0Z"/>
  <path d="M1185.67,955.56c3.47,0,6.76,5.55,8.27,8.17,1.86,3.26,3.33,7.37,3.92,11.08.24,1.52.91,6.4-.61,7.83-4.75,4.45-9.5,8.91-14.25,13.36-.84.79-1.7,1.13-2.55,1.13-3.47,0-6.76-5.55-8.27-8.17-1.86-3.26-3.33-7.37-3.92-11.08-.24-1.52-.91-6.4.61-7.83,4.75-4.45,9.5-8.91,14.25-13.36.84-.79,1.7-1.13,2.55-1.13M1185.65,947.75c-2.9,0-5.62,1.13-7.87,3.24l-6.59,6.18-7.66,7.19c-3.17,2.98-4.12,7.67-2.98,14.76.74,4.62,2.51,9.62,4.86,13.72,2.08,3.63,6.94,12.13,15.07,12.1,2.9,0,5.62-1.13,7.87-3.24l7.12-6.68,7.12-6.68c3.17-2.97,4.12-7.67,2.98-14.76-.74-4.62-2.51-9.63-4.86-13.72-2.08-3.63-6.94-12.13-15.07-12.1h0Z"/>
  <path d="M1404.17,1536.04c-.93,0-1.87-.01-2.81-.04-18.41-.54-35.88-8.76-49.21-23.14-22.24-24.03-27.8-57.01-29.12-74.53-1.82-24.03,2.82-49.97,14.18-79.29.95-2.45,3.06-3.91,5.64-3.92s4.93,1.49,5.81,2.14c3.91,2.86,6.23,7.34,8.1,10.93,3.13,6.01,7.83,17.48,4.2,26.86-.75,1.93-1.48,3.88-2.18,5.83-.17.47-.91,2.6-.91,2.6l-.39,1.18c-.61,1.86-1.19,3.73-1.74,5.61-1.06,3.58-2.01,7.17-2.83,10.67-1.63,6.97-2.79,13.83-3.45,20.4-.11,1.06-.19,2.12-.27,3.18l-.08,1.05c-.03.71-.06,1.43-.08,2.14-.09,3.04-.06,6.06.08,8.95.06,1.19.14,2.38.23,3.57.05.4.1.79.15,1.18.18,1.34.39,2.67.62,4,.07.38.14.75.21,1.12.17.7.34,1.4.53,2.1.08.3.24.81.4,1.34.15.43.3.84.4,1.1l.14.34c.25.54.51,1.07.78,1.6.4.65.8,1.29,1.22,1.93l.23.34c1.31,1.65,2.43,2.96,3.51,4.11l.13.12c.76.7,1.54,1.38,2.35,2.05,1.56,1.28,3.21,2.48,4.91,3.57.34.22.68.43,1.03.64,0,0,.71.38,1.03.55.46.24.91.49,1.38.71,7.27,3.47,15.46,5.31,24.36,5.47,4.69-.06,9.64-.6,14.61-1.62,20.47-4.16,41.54-15.77,62.65-34.5,7.48-6.77,14.91-14.44,22.06-22.76,16.65-19.38,31.73-41.87,46.09-68.76,7.48-14.01,14.67-29.14,21.38-44.99,3.45-8.15,6.85-16.67,10.1-25.34,1.64-4.37,3.28-8.88,4.87-13.4.84-2.39,1.67-4.79,2.49-7.18,0,0,1.45-4.33,1.86-5.58,13.17-40,23.78-82.62,32.44-130.3,5.15-28.36,9.77-56.7,14.38-85.55-18.92,11.82-38.41,21.7-58.04,29.42-28.11,11.06-53.28,16.46-76.95,16.52h-1.46c-25.33-.18-46.7-8.82-61.79-25.01-10.06-10.78-17.89-25.55-23.29-43.9-3.93-13.35-5.71-27.79-5.3-42.91.9-33.13,10.34-64.19,18.46-87.54,8.95-25.73,20.74-52.99,36.07-83.33,10.79-21.35,22.77-43.08,35.63-64.58,5.05-8.45,10.51-17.46,16.23-26.14,1.88-2.86,4.35-3.29,5.66-3.29,5.5-.01,10.38,7.16,13.52,13.18,2.4,4.61,4.23,10.15,5.02,15.21.62,3.98,1.05,8.98-1.2,12.39l-.25.38c-1.58,2.71-3.3,5.36-4.97,7.92-1.13,1.75-2.27,3.49-3.36,5.26-5.39,8.72-10.88,17.92-16.31,27.36-16.79,29.16-30.81,56.4-42.87,83.27-7.68,17.11-13.99,32.86-19.31,48.14l-.6,1.74-.91,2.72c-.65,1.95-1.28,3.91-1.89,5.88-1.27,4.06-2.47,8.09-3.55,11.98-2.3,8.25-4.12,15.91-5.57,23.4-1.53,7.91-2.57,15.19-3.17,22.25-.03.38-.05.77-.08,1.16-.04.65-.08,1.31-.15,1.96-.08,1.64-.12,3.28-.15,4.93-.04,3.36.04,6.64.24,9.76.04.67.1,1.35.15,2.02.17,1.38.36,2.78.59,4.18.12.76.54,2.57.73,3.44.04.2.09.41.13.63.04.16.09.31.13.47.05.19.11.38.17.57.25.63.58,1.39.84,1.98l.12.24c.11.18.22.37.34.55.27.42.54.83.81,1.24.65.82,1.31,1.64,2,2.43.29.33.59.65.89.97l.43.47c.73.68,1.68,1.53,2.66,2.33,1.58,1.29,3.33,2.54,5.48,3.9.73.25,1.5.65,2.15,1.21l.16.08c1.09.54,2.22,1.07,3.37,1.55,9.2,3.91,19.81,5.88,32.43,6.02,11.29-.08,23.18-1.6,36.28-4.64,23.58-5.48,48.43-15.28,73.85-29.15,16.14-8.8,31.75-18.85,46.42-29.89l1.18-7.24c5.86-35.6,12.5-75.96,19.86-115.61,5.05-27.17,9.77-51.67,16.44-76.24,2.83-10.4,5.49-18.68,8.39-26.07,2.08-5.3,4.51-10.88,8.16-15.75,3.73-4.98,7.5-7.86,11.53-8.79,1.18-.27,2.38-.41,3.57-.42,4.91-.01,8.92,2.25,11.87,4.22,5.66,3.79,9.93,9.32,13.8,14.66,7.26,9.98,13.62,21.46,19.44,35.09,13.22,30.93,16.43,65.12,9.02,96.28-6.39,26.87-19.9,53.58-40.15,79.4-16.06,20.48-35.76,39.87-58.56,57.68-2.43,14.8-4.84,29.6-7.25,44.41l-1.07,6.59c-1.34,8.19-2.65,16.39-3.95,24.6-4.19,26.25-8.52,53.4-13.73,79.95-12.07,61.56-27.6,115.21-47.48,164.04-17.58,43.17-37.14,78.7-59.8,108.62-20.66,27.28-41.82,47.35-64.7,61.37-19.46,11.92-38.93,17.99-57.85,18.04ZM1703.09,807.5l-.34,1.02c-.41,1.26-.81,2.52-1.2,3.78-4.27,13.82-7.47,27.76-10.3,40.77-7.53,34.68-13.61,69.4-19.96,107.28,14.69-14.59,27.23-29.78,37.34-45.25,6.03-9.22,11.19-18.58,15.36-27.81,2.03-4.5,3.75-9.05,5.63-14.11,0,0,.45-1.38.63-1.94.35-1.12.69-2.25,1.02-3.37.71-2.44,1.35-4.91,1.92-7.33,1.12-4.83,1.98-9.68,2.55-14.42.15-1.23.27-2.45.39-3.68.05-.57.1-1.14.14-1.71l.05-.97c.02-.56.04-1.13.06-1.7.03-1.22.05-2.45.04-3.68-.01-2.37-.09-4.75-.25-7.07-.04-.66-.09-1.32-.15-1.98l-.03-.25c-.07-.57-.14-1.13-.22-1.69-.32-2.32-.71-4.65-1.17-6.94-.26-1.07-.58-2.29-.92-3.5-.26-.93-.53-1.85-.81-2.76-.39-1.1-.85-2.2-1.31-3.3-.45-1.09-.91-2.19-1.31-3.29l-.08-.18c-.53-1.12-1.09-2.23-1.65-3.34-.05-.08-.19-.29-.35-.54-.86-1.33-1.49-2.36-1.82-3.35-1.11-1.84-2.16-3.5-3.21-5.06-.18-.27-.54-.78-.88-1.27-.14-.18-.34-.45-.47-.61-.55-.69-1.12-1.38-1.71-2.05-.12-.13-.31-.33-.51-.55-.15-.14-.29-.27-.39-.35-.41-.34-.83-.68-1.26-.98-.15-.07-.29-.15-.45-.2-.3-.11-.61-.19-.9-.25-.84.19-1.71.61-2.6,1.28-1.17,1.2-2.28,2.7-3.49,4.69-1.6,2.62-3.1,5.7-4.73,9.69-.83,2.03-1.64,4.17-2.48,6.55l-.14.4-3.72-1.19,3.7,1.24Z"/>
  <path d="M1510.87,725.64c3.93,0,8.97,9.01,10.04,11.08,2.19,4.2,3.89,9.32,4.62,14.01.4,2.54,1,7.2-.6,9.64-.12.18-.25.37-.36.56-2.6,4.45-5.57,8.71-8.28,13.1-5.6,9.07-11.05,18.23-16.37,27.46-15.64,27.17-30.21,55.01-43.05,83.62-7.13,15.88-13.72,32.01-19.43,48.46-.2.58-.4,1.17-.61,1.75,0-.02.01-.04.02-.05.07-.23.1-.32.1-.32,0,0-.4,1.16-.4,1.16,0,0,.06-.18.23-.67.01-.04.03-.08.04-.13-.3.92-.62,1.84-.92,2.76-.65,1.97-1.29,3.95-1.91,5.93-1.26,4.01-2.46,8.05-3.59,12.1-2.18,7.83-4.1,15.73-5.64,23.71-1.45,7.49-2.58,15.06-3.23,22.66-.09,1.04-.1,2.11-.23,3.14,0-.09,0-.19.01-.28.02-.37.04-.74.06-1.11.02-.4.02-.56.02-.56,0,0-.12,2.16-.12,2.16,0,0,0,0,0,0,0-.07.02-.15.03-.22-.08,1.73-.13,3.46-.16,5.19-.04,3.36.03,6.72.25,10.07.05.75.11,1.49.17,2.24-.02-.12-.03-.24-.05-.36-.09-.76-.14-1.04-.15-1.04-.03,0,.25,2.67.28,2.67,0,0,0-.12-.02-.42-.02-.28-.04-.56-.07-.84.18,1.45.38,2.9.62,4.35.2,1.24.94,4.36.93,4.36,0,0-.24-.92-.9-3.58.35,1.4.67,2.8,1.06,4.19.08.28.16.55.25.82-.07-.18-.14-.35-.19-.5-.13-.37-.25-.74-.39-1.1-.12-.34-.18-.48-.19-.48-.02,0,.36,1.17.72,2.25-.12-.26-.25-.53-.38-.82.13.28.26.55.39.83.31.92.6,1.77.62,1.77,0,0,0-.02,0-.05-.01-.05-.03-.1-.04-.16.37.71,1.5,2.72,1.53,2.72,0,0-.01-.04-.06-.13.47.67,1.4,1.93,1.44,1.93.02,0-.09-.18-.4-.64-.14-.2-.28-.41-.41-.61.73.92,1.45,1.83,2.23,2.71.49.56,1,1.09,1.5,1.63-.12-.11-.24-.22-.35-.33-.39-.36-.55-.5-.57-.5-.06,0,1.43,1.49,1.5,1.49.02,0-.08-.13-.39-.46-.06-.07-.13-.14-.19-.21.96.88,1.93,1.75,2.95,2.58,2.03,1.66,4.17,3.12,6.39,4.51,0,.03.13.12.47.29.23.11.45.23.67.35.14.08.24.15.25.18,0-.02-.01-.04-.02-.07.25.13.5.26.75.39,1.18.59,2.38,1.14,3.6,1.66,10.7,4.54,22.39,6.2,33.95,6.33-.21,0-.43,0-.64,0h-.27c.64,0,1.27,0,1.91,0-.33,0-.67,0-1,0,12.52-.09,24.99-1.91,37.17-4.74,26.18-6.08,51.28-16.68,74.83-29.52,16.79-9.16,32.91-19.58,48.16-31.15-2.77,17.03-5.47,34.08-8.18,51.12-20.37,13.37-42.04,24.85-64.7,33.77-24.06,9.46-49.56,16.19-75.54,16.25-.47,0-.95,0-1.42,0-22.47-.15-43.38-7.06-58.96-23.77-10.94-11.74-17.91-27.1-22.4-42.34-3.95-13.44-5.52-27.71-5.14-41.7.81-29.68,8.55-58.47,18.24-86.37,9.89-28.44,22.3-55.99,35.86-82.85,11.04-21.87,22.92-43.32,35.49-64.34,5.23-8.75,10.53-17.48,16.14-26,.71-1.08,1.53-1.53,2.41-1.53M1704.6,745.01c3.51,0,6.67,1.55,9.69,3.56,5.18,3.47,9.19,8.72,12.82,13.7,7.72,10.62,13.85,22.26,19.01,34.33,12.56,29.39,16.23,62.66,8.81,93.84-6.81,28.63-21.36,54.87-39.42,77.89-17.04,21.72-37.25,41.02-59.1,57.95,2.28-13.9,4.57-27.8,6.89-41.69.74-4.42,1.47-8.85,2.21-13.27.67-.62,1.34-1.25,2.01-1.87,16.65-15.68,31.87-33.04,44.39-52.21,5.91-9.04,11.21-18.5,15.65-28.35,2.12-4.7,3.93-9.51,5.72-14.34,0,0,0,0,0,0-.21.56-.28.78-.28.78,0,0,.13-.33.28-.78.02-.07.05-.14.08-.21-.03.07-.05.14-.08.2.04-.13.09-.27.14-.42.19-.57.37-1.15.55-1.73.36-1.15.71-2.3,1.05-3.46.72-2.49,1.38-5,1.97-7.53,1.14-4.9,2.03-9.85,2.63-14.85.15-1.26.28-2.53.4-3.8.05-.58.1-1.17.15-1.75,0-.03,0-.06,0-.1-.02.38-.04.7-.03.7s.02-.27.07-1.01c.05-.78.07-1.06.06-1.06,0,0-.06.93-.09,1.36.02-.38.04-.81.05-1.01.02-.58.04-1.17.06-1.76.03-1.27.05-2.54.04-3.8-.01-2.44-.09-4.88-.25-7.32-.04-.68-.1-1.37-.15-2.05,0,0,0-.02,0-.03.06.58.15,1.41.16,1.41,0,0-.03-.37-.14-1.43-.11-1.11-.15-1.49-.15-1.49,0,0,.1,1.05.14,1.51-.02-.14-.03-.27-.04-.37-.07-.59-.15-1.17-.23-1.75-.33-2.4-.73-4.79-1.21-7.17h0c.14.57.21,1.2.41,1.75.01.03.02.04.02.04.06,0-.71-3.43-.75-3.43,0,0,0,.1.05.33.07.39.16.78.24,1.17,0,.04.02.09.03.13-.31-1.27-.64-2.53-.98-3.78-.27-.96-.55-1.92-.84-2.88.18.53.33,1.1.56,1.61,0,0,0,0,0,0,0,0,0,0,0,0-.13-.3-.53-1.56-.82-2.47v-.04c-.22-.68-.3-.94-.3-.94,0,0,.13.43.3.99.09.29.17.57.26.86-.01-.04-.03-.08-.04-.12-.81-2.29-1.87-4.52-2.7-6.81.22.45.43.91.64,1.37.13.29.26.58.39.86.18.38.25.53.26.53.03,0-1.52-3.48-1.54-3.48,0,0,0,0,0,0,.08.23.16.47.25.7-.06-.12-.11-.24-.17-.35-.55-1.16-1.12-2.3-1.7-3.44-.3-.58-1.98-2.9-2-3.62.11.18.22.36.32.54.22.37.43.74.65,1.11.16.28.32.57.49.85.09.16.14.22.14.22.04,0-1.5-2.83-1.59-2.83,0,0,0,0,0,0,0,.03-.01.06,0,.1-1.16-1.94-2.36-3.85-3.61-5.73-.19-.28-.56-.81-.92-1.32.49.65,1.03,1.37,1.03,1.37,0,0-.25-.35-.95-1.31-.67-.92-.92-1.26-.93-1.26,0,0,.4.58.84,1.21-.24-.32-.48-.63-.63-.81-.6-.75-1.21-1.49-1.85-2.21-.15-.17-.43-.46-.7-.75.48.44,1,.94,1.01.94,0,0-.24-.25-.95-.95-.69-.68-.94-.93-.95-.93-.01,0,.44.47.89.94-.24-.22-.46-.42-.61-.55-.54-.45-1.09-.88-1.67-1.28-.05-.04-.1-.07-.16-.11.17.08.34.15.51.22.13.05.21.07.24.07.23,0-1.58-1.03-1.76-1.03-.05,0,.03.08.31.28.22.16.46.3.7.46-.36-.17-.71-.35-1.09-.49-.72-.26-1.47-.44-2.23-.53.31-.04.63-.06.95-.06-.64,0-1.27,0-1.91,0,.32,0,.64.02.95.06-1.92.23-3.66,1.11-5.18,2.31.25-.25.51-.5.78-.74-.47.42-.95.85-1.42,1.27.21-.19.42-.36.64-.54-1.65,1.66-3.02,3.59-4.23,5.58-1.98,3.25-3.57,6.72-5.01,10.24-.91,2.22-1.75,4.47-2.55,6.74-.06.18-.13.37-.19.55.07-.22.15-.45.22-.67.08-.24.11-.34.11-.34,0,0-.6,1.73-.59,1.73,0,0,.04-.09.12-.33.05-.13.09-.27.14-.4-.11.33-.22.67-.33,1-.42,1.28-.83,2.56-1.22,3.84-4.17,13.5-7.38,27.29-10.38,41.09-8.57,39.43-15.3,79.27-21.93,119.07-1.18,1.09-2.37,2.18-3.57,3.26-7.37,6.57-15.01,12.84-22.87,18.81.48-2.93.96-5.86,1.44-8.78,6.34-38.55,12.71-77.11,19.85-115.53,4.72-25.43,9.58-50.95,16.37-75.92,2.35-8.67,4.98-17.3,8.26-25.67,2.02-5.15,4.32-10.39,7.65-14.84,2.27-3.03,5.45-6.43,9.29-7.33.92-.21,1.82-.31,2.69-.32M1662.55,974.03c-.47.42-.95.85-1.42,1.27.27-.24.54-.48.8-.72.21-.18.41-.37.62-.55M1656.4,1026.28c-2.87,17.5-5.72,35-8.57,52.51-5.68,34.83-10.87,69.79-17.66,104.43-10.91,55.64-25.86,110.75-47.27,163.32-15.46,37.98-34.47,74.97-59.29,107.74-17.62,23.27-38.59,45.06-63.63,60.4-16.93,10.37-35.86,17.41-55.82,17.46-.89,0-1.79,0-2.69-.04-18.1-.53-34.24-8.7-46.45-21.89-17.75-19.17-26.16-46.61-28.1-72.17-2.01-26.51,4.41-53.03,13.93-77.58.41-1.05,1.16-1.42,2.01-1.42,1.23,0,2.66.77,3.49,1.38,3.15,2.31,5.18,6.18,6.95,9.58,3.46,6.65,6.87,16.29,4.02,23.64-.76,1.96-1.5,3.93-2.21,5.92-.31.87-.61,1.75-.92,2.62.03-.09.06-.19.09-.28.13-.41.18-.56.18-.56,0,0-.42,1.22-.41,1.22,0,0,.01-.02.03-.08.04-.1.07-.2.11-.3-.14.42-.28.85-.42,1.27-.62,1.89-1.21,3.8-1.77,5.71-1.06,3.6-2.03,7.23-2.88,10.89-1.61,6.88-2.83,13.86-3.54,20.89-.14,1.41-.24,2.82-.36,4.22.01-.3.03-.59.04-.89.02-.45.02-.63.02-.63-.02,0-.15,2.28-.13,2.28,0,0,.01-.07.03-.24.01-.17.03-.35.04-.52,0,.08,0,.15-.01.23-.03.73-.06,1.47-.08,2.21-.09,3.08-.06,6.17.09,9.25.06,1.26.15,2.51.25,3.76-.03-.27-.06-.54-.1-.81-.06-.46-.08-.65-.09-.65-.03,0,.27,2.95.29,2.95,0,0,0-.23-.05-.81-.02-.23-.04-.45-.05-.68.05.44.11.88.16,1.32.19,1.39.4,2.78.65,4.17.07.42.15.84.23,1.26-.13-.53-.25-1.05-.39-1.58-.02-.1-.04-.14-.04-.14-.02,0,.55,2.64.77,3.58-.01-.03-.02-.04-.02-.04,0,0,.01.04.04.13.03.14.06.23.06.23,0,0,0-.01,0-.05.1.3.27.83.54,1.66.11.34.21.63.29.88-.08-.16-.15-.33-.23-.49-.07-.14-.1-.2-.1-.2-.02,0,.25.65.58,1.41.09.25.12.36.13.36,0,0-.02-.07-.05-.19.1.24.21.49.31.73-.13-.2-.18-.29-.19-.29-.01,0,.13.25.33.61.28.64.5,1.14.52,1.14,0,0-.06-.19-.24-.65.46.81,1.03,1.79,1.15,1.99-.03-.04-.05-.05-.05-.05-.05,0,1.86,2.62,1.91,2.62.01,0-.05-.11-.23-.36-.24-.35-.48-.7-.72-1.05,1.23,1.56,2.5,3.09,3.88,4.54,0,0,.01.01.02.02-.38-.36-.9-.87-.9-.87,0,0,.25.25,1,.99.74.74,1,.99,1,.99,0,0-.77-.77-1.1-1.12.09.09.17.16.24.22.82.76,1.66,1.49,2.52,2.2,1.68,1.38,3.45,2.66,5.28,3.84.43.27.86.54,1.29.8-.13-.07-.26-.13-.4-.2.19.09.46.24.7.38.48.29.66.4.67.4,0,0-.31-.2-.67-.4-.02-.01-.05-.03-.07-.05-.08-.05-.15-.09-.23-.14.86.44,1.7.92,2.57,1.33,8.1,3.87,17.02,5.7,25.98,5.85-.25,0-.5,0-.75,0h-.16c.64,0,1.27,0,1.91,0-.33,0-.66,0-.99-.01,5.19-.06,10.37-.66,15.46-1.69,24.38-4.96,46.15-19.14,64.51-35.45-.21.19-.43.39-.64.58.47-.42.95-.85,1.42-1.27-.26.23-.52.46-.78.69,7.95-7.2,15.39-14.95,22.38-23.08,18.21-21.19,33.43-44.86,46.57-69.47,7.88-14.76,15.01-29.91,21.53-45.31,3.56-8.42,6.94-16.92,10.16-25.49,1.68-4.47,3.31-8.96,4.9-13.47.83-2.37,1.66-4.74,2.47-7.11.02-.06.05-.13.07-.22l-.07.22c-.08.22-.11.32-.11.32,0,0,.63-1.86.77-2.29.42-1.25.83-2.5,1.25-3.75,14.07-42.72,24.54-86.59,32.58-130.83,5.69-31.33,10.75-62.78,15.76-94.24,5.26-3.45,10.43-7.03,15.52-10.72,3.37-2.45,6.71-4.95,10.02-7.51M1423.53,1033.24c.29.72.68,1.64.98,2.33-.24-.48-.47-.96-.69-1.45-.01-.02-.02-.05-.03-.07-.08-.27-.17-.54-.26-.81M1423.49,1033.41c.11.23.21.44.3.64,0,0,0,0,0,0-.1-.21-.2-.42-.3-.63,0,0,0,0,0,0M1423.78,1034.05s.02.05.03.07c.34.72.59,1.26.76,1.64-.14-.24-.28-.47-.43-.71-.06-.09-.1-.16-.13-.21-.07-.26-.15-.53-.23-.79M1423.94,1034.73s.03.03.08.11c.01.05.03.09.04.14-.08-.15-.12-.25-.12-.25M1424.51,1035.56c.08.16.16.31.24.47-.03-.06-.07-.11-.1-.17-.04-.09-.09-.19-.13-.3M1424.58,1035.76s.04.07.06.11c.18.4.3.67.3.67,0,0-.11-.23-.36-.78M1424.75,1036.04c.15.25.3.5.46.75.31.49.63.97.95,1.46-.16-.21-.33-.41-.49-.62-.12-.16-.22-.27-.28-.35-.08-.15-.18-.34-.3-.58-.12-.22-.23-.44-.34-.66M1425.27,1037.15s.05.04.12.13c.06.12.11.22.14.29-.17-.25-.28-.41-.26-.41M1439.26,1049.65c.18,0,1.15.39,1.34.78-.08-.04-.15-.08-.23-.12-.29-.17-.74-.39-.81-.44-.11-.07-.22-.14-.33-.21,0,0,0-.01.03-.01M1346.51,1467.35c.19.77.37,1.55.58,2.31.09.34.27.93.45,1.53-.25-.7-.51-1.44-.63-1.81-.01-.08-.03-.19-.06-.33-.06-.31-.13-.62-.19-.93-.05-.26-.1-.52-.15-.78M1346.85,1469.21s.04.1.07.18c0,.04.01.07.02.1-.02-.08-.04-.14-.06-.19,0-.03-.01-.06-.02-.09M1347.55,1471.19c.18.51.35.99.47,1.28.06.16.13.32.19.49-.11-.23-.22-.46-.33-.69-.1-.32-.22-.7-.33-1.08M1347.76,1472.02c.04.08.08.16.12.25.08.27.15.5.2.65-.03-.06-.05-.12-.07-.17-.06-.17-.14-.41-.24-.73M1348.21,1472.96c.3.63.6,1.26.92,1.88.02.03.03.06.05.09-.15-.24-.29-.48-.44-.72-.02-.04-.05-.08-.07-.12-.15-.38-.31-.75-.46-1.13M1348.39,1473.65c.07.11.16.26.27.44.02.04.04.09.05.13.03.08.07.16.09.23-.1-.17-.19-.34-.28-.49-.04-.1-.09-.21-.14-.32M1349.17,1474.93c.44.73.89,1.45,1.37,2.17.11.17.23.34.34.51-.18-.23-.36-.45-.53-.68-.18-.23-.29-.37-.36-.45,0,0,0-.02-.02-.03-.26-.51-.54-1-.8-1.51M1349.96,1476.44s.01.02.02.03c0,0,0,0,0,0,0,0,0-.01-.02-.03M1510.85,717.83c-3.56,0-6.81,1.85-8.91,5.05-5.76,8.75-11.25,17.8-16.32,26.29-12.9,21.58-24.93,43.39-35.76,64.83-15.4,30.49-27.27,57.91-36.27,83.81-8.21,23.62-17.76,55.06-18.67,88.72-.42,15.53,1.41,30.37,5.46,44.12,5.57,18.93,13.71,34.23,24.18,45.46,15.84,16.99,38.19,26.07,64.62,26.25.5,0,1,0,1.49,0,24.17-.06,49.81-5.55,78.38-16.8,17.35-6.82,34.58-15.31,51.41-25.31-4.16,25.95-8.38,51.54-13.03,77.12-8.63,47.5-19.2,89.96-32.31,129.78-.41,1.24-.82,2.48-1.23,3.72l-.38,1.13c-.06.19-.13.39-.2.61l-.06.19-.04.12c-.79,2.31-1.59,4.62-2.4,6.93-1.58,4.47-3.21,8.95-4.85,13.32-3.22,8.59-6.6,17.07-10.04,25.19-6.66,15.73-13.8,30.77-21.23,44.68-14.22,26.63-29.14,48.89-45.6,68.05-7.01,8.16-14.3,15.68-21.67,22.36-20.59,18.27-41.06,29.58-60.85,33.61-4.7.96-9.37,1.47-13.88,1.54-8.28-.16-15.89-1.87-22.62-5.08-.41-.2-.81-.41-1.22-.63-.3-.16-.6-.32-.9-.47-.3-.18-.6-.37-.9-.56-1.57-1-3.09-2.11-4.53-3.3-.74-.61-1.47-1.25-2.17-1.9l-.02-.02c-.95-1.01-1.95-2.18-3.12-3.66-.04-.06-.08-.12-.12-.18-.36-.55-.71-1.11-1.06-1.67-.22-.43-.42-.84-.61-1.25l-.08-.2c-.08-.21-.2-.55-.33-.92-.14-.46-.27-.89-.34-1.15-.17-.63-.33-1.26-.48-1.89-.06-.33-.12-.65-.18-.98-.22-1.25-.42-2.54-.6-3.84-.05-.35-.09-.7-.13-1.05-.07-.95-.16-2.16-.22-3.37-.14-2.81-.16-5.72-.08-8.66.02-.69.04-1.38.08-2.07v-.08s.07-.84.07-.84c.08-1.03.16-2.06.27-3.09.65-6.4,1.78-13.09,3.37-19.9.8-3.42,1.73-6.94,2.77-10.45.54-1.82,1.11-3.67,1.71-5.5l.28-.86.1-.3c.13-.38.27-.76.4-1.14.16-.46.32-.92.48-1.37.66-1.84,1.36-3.71,2.14-5.73,3.98-10.27-.18-22.02-4.37-30.08-1.95-3.74-4.62-8.87-9.26-12.27-1.48-1.08-4.5-2.9-8.13-2.89-4.19.01-7.75,2.47-9.28,6.41-11.58,29.88-16.3,56.37-14.43,81,1.37,18.03,7.1,51.99,30.15,76.88,14.04,15.16,32.49,23.83,51.96,24.4.98.03,1.96.04,2.94.04,19.65-.05,39.8-6.31,59.88-18.61,23.3-14.27,44.82-34.66,65.77-62.34,22.86-30.19,42.59-66.01,60.3-109.51,19.98-49.06,35.58-102.96,47.7-164.76,5.22-26.64,9.57-53.85,13.77-80.16,1.3-8.17,2.61-16.35,3.94-24.51l1.2-7.35c2.29-14.05,4.58-28.09,6.88-42.14,22.54-17.74,42.06-37.04,58.03-57.4,20.61-26.26,34.36-53.49,40.88-80.91,7.6-31.96,4.32-67.02-9.23-98.72-5.95-13.91-12.45-25.63-19.88-35.85-4.09-5.62-8.59-11.46-14.79-15.6-3.14-2.1-8.02-4.9-14.05-4.88h0c-1.48,0-2.98.18-4.44.52-4.97,1.15-9.47,4.51-13.77,10.26-3.93,5.25-6.49,11.11-8.67,16.67-2.96,7.53-5.67,15.94-8.53,26.48-6.72,24.72-11.45,49.29-16.51,76.55-7.36,39.66-14.01,80.05-19.87,115.68-.31,1.9-.62,3.8-.93,5.69-14.16,10.56-29.18,20.19-44.69,28.65-25.11,13.69-49.63,23.37-72.86,28.77-12.77,2.97-24.35,4.45-35.39,4.54-12.08-.14-22.2-2.01-30.92-5.71-1.01-.43-2-.88-2.95-1.35-.78-.59-1.63-1.07-2.5-1.41-1.87-1.2-3.4-2.3-4.77-3.42-.7-.57-1.44-1.21-2.38-2.07l-.32-.34c-.28-.3-.56-.6-.83-.91-.57-.64-1.12-1.33-1.77-2.15-.23-.34-.45-.68-.67-1.02-.07-.12-.15-.24-.22-.36h0c-.22-.51-.48-1.11-.69-1.63-.03-.11-.07-.22-.1-.32-.03-.1-.06-.2-.08-.3-.05-.23-.09-.44-.13-.61-.16-.7-.58-2.57-.69-3.21-.22-1.35-.4-2.71-.55-3.88-.05-.64-.11-1.29-.15-1.94-.19-3.03-.27-6.21-.23-9.47.02-1.53.07-3.1.14-4.68.08-.73.11-1.42.15-2.03.02-.35.04-.71.07-1.06.59-6.92,1.61-14.06,3.11-21.84,1.43-7.4,3.23-14.95,5.5-23.1,1.07-3.84,2.25-7.83,3.52-11.86.61-1.95,1.24-3.89,1.88-5.82.13-.4.26-.79.4-1.19.17-.51.34-1.02.51-1.53l.18-.53.4-1.15c5.28-15.17,11.55-30.82,19.18-47.82,12.01-26.75,25.97-53.87,42.69-82.92,5.4-9.38,10.87-18.55,16.25-27.26,1.06-1.72,2.16-3.4,3.31-5.19,1.67-2.57,3.39-5.23,5.01-7.98l.03-.04.17-.25c2.99-4.53,2.53-10.47,1.8-15.15-.85-5.46-2.83-11.44-5.41-16.41-5.29-10.15-11-15.29-16.99-15.28h0ZM1706.76,808.83l.05-.13.12-.35c.82-2.33,1.61-4.42,2.4-6.36,1.55-3.79,2.97-6.7,4.46-9.14.95-1.57,1.82-2.76,2.69-3.71.06.04.11.09.17.14.04.03.09.08.15.14.14.14.26.28.34.37.5.57,1.02,1.19,1.58,1.89.1.13.26.33.43.56.29.42.59.84.74,1.06.95,1.42,1.91,2.92,2.91,4.57.52,1.37,1.31,2.59,2.08,3.79.09.14.18.27.25.38.52,1.01,1.03,2.04,1.51,3.06v.02c.43,1.14.88,2.23,1.32,3.27.45,1.08.87,2.09,1.22,3.06.26.85.51,1.69.74,2.54.31,1.12.61,2.26.88,3.38.43,2.16.8,4.36,1.1,6.53.07.54.14,1.09.21,1.64l.02.2c.05.62.1,1.22.13,1.82.15,2.25.23,4.55.24,6.84,0,1.18,0,2.38-.04,3.56-.01.55-.03,1.1-.06,1.65,0,.16-.03.51-.04.84h0c-.04.55-.09,1.09-.14,1.64-.11,1.19-.23,2.39-.37,3.57-.55,4.6-1.39,9.31-2.48,14-.55,2.36-1.18,4.76-1.86,7.13-.32,1.1-.65,2.19-.99,3.29-.17.55-.35,1.1-.53,1.64l-.08.24c-1.84,4.94-3.52,9.39-5.48,13.74-4.08,9.05-9.15,18.23-15.07,27.28-7.9,12.1-17.32,24.03-28.12,35.64,5.61-33.08,11.15-63.93,17.83-94.7,2.81-12.93,5.99-26.78,10.21-40.45.38-1.24.78-2.48,1.18-3.72l.26-.79.04-.12h0ZM1646.27,997.72c2.68-2.07,5.34-4.18,7.97-6.32-1.56,9.43-3.23,19.52-5.04,30.58-2.43,1.85-4.91,3.7-7.4,5.51-.11.08-.23.16-.34.25,1.58-9.93,3.19-20.02,4.81-30.01h0ZM1656.43,1034.1h0s0,0,0,0h0Z"/>
  <line class="st0" x1="1711.96" y1="1192.82" x2="1730.5" y2="1175.43"/>
  <path d="M1717.85,1215.07c-6.15.01-10.79-6.73-14.16-12.6-2.69-4.7-4.72-10.44-5.57-15.74-1.65-10.25,1.08-12.81,1.98-13.65l18.54-17.39c2.22-2.08,4.47-2.52,5.97-2.52,6.15-.02,10.79,6.73,14.16,12.6,2.69,4.7,4.72,10.44,5.57,15.74,1.65,10.25-1.08,12.81-1.98,13.65l-18.43,17.28c-2.32,2.18-4.58,2.62-6.08,2.63h0Z"/>
  <path d="M1724.62,1157.09c4.51-.01,8.8,7.22,10.76,10.63,2.43,4.24,4.33,9.58,5.11,14.41.32,1.98,1.19,8.32-.8,10.18-6.18,5.79-12.36,11.59-18.54,17.38-1.1,1.03-2.21,1.46-3.31,1.47-4.51.01-8.8-7.22-10.76-10.63-2.43-4.24-4.33-9.58-5.11-14.41-.32-1.98-1.19-8.32.8-10.18,6.18-5.8,12.36-11.59,18.54-17.38,1.1-1.03,2.21-1.46,3.31-1.47M1724.6,1149.27c-2.21,0-5.49.63-8.64,3.58l-3.64,3.41-14.9,13.97c-3.51,3.29-4.51,8.73-3.17,17.12.92,5.75,3.12,11.96,6.04,17.06,2.5,4.37,8.35,14.59,17.56,14.57,2.21,0,5.49-.63,8.64-3.58l9.27-8.69,9.27-8.69c3.51-3.29,4.51-8.73,3.17-17.12-.92-5.75-3.12-11.96-6.04-17.06-2.5-4.37-8.35-14.59-17.56-14.57h0Z"/>
</svg>